<svg xmlns="http://www.w3.org/2000/svg" width="26" height="61" viewBox="0 0 26 61">
    <g fill="none" fill-rule="evenodd">
        <path stroke="#2E2E41" stroke-width="2" d="M18.5 46.192l3.686 1.562 1.883-3.3-7.917-22.82"/>
        <path fill="#FFF" d="M1.798 2.588c-1.763 1.309.477 5.789 1.88 8.212a28.608 28.608 0 0 1 8.467-.078c1.405-2.44 3.58-6.84 1.832-8.134 0 0-5.158-3.573-12.179 0"/>
        <path stroke="#2E2E41" stroke-width="2" d="M1.798 2.588c-1.763 1.309.477 5.789 1.88 8.212a28.608 28.608 0 0 1 8.467-.078c1.405-2.44 3.58-6.84 1.832-8.134 0 0-5.158-3.573-12.179 0z"/>
        <path fill="#FFF" d="M4.593 14.919L1.04 52.054l7.065 7.022 6.63-7.022-3.56-37.206"/>
        <path stroke="#2E2E41" stroke-width="2" d="M4.593 14.919L1.04 52.054l7.065 7.022 6.63-7.022-3.56-37.206"/>
    </g>
</svg>
