<svg xmlns="http://www.w3.org/2000/svg" width="319" height="279" viewBox="0 0 319 279">
    <path fill="#2D2D42" fill-rule="evenodd" d="M-31.204 325.218a2.391 2.391 0 1 0 2.39 2.391c0-1.32-1.07-42.39-2.39-42.39m2.124 34.999a2.124 2.124 0 1 0 0 0zm-11.656 0a2.14 2.14 0 1 0 4.281 0 2.14 2.14 0 0 0-4.28 0zm7.141-7.39a2.391 2.391 0 1 0 4.782-.004 2.391 2.391 0 0 0-4.782.003zm-7.39 0a2.39 2.39 0 1 0 4.78-.003 2.39 2.39 0 0 0-4.78.002zm458.261-7.393a2.39 2.39 0 1 0 4.782.003 2.39 2.39 0 0 0-4.782-.003zm-450.871 0a2.392 2.392 0 1 0 4.783 0 2.392 2.392 0 0 0-4.783 0zm-5 2.384a2.383 2.383 0 1 0 0-4.768 2.385 2.385 0 0 0 0 4.768zm463.264-9.774a2.39 2.39 0 1 0 4.78-.003 2.39 2.39 0 0 0-4.78.003zm-450.872 0a2.39 2.39 0 1 0 4.78-.002 2.39 2.39 0 0 0-4.78.002zm-7.392 0a2.39 2.39 0 1 0 4.781-.003 2.39 2.39 0 0 0-4.781.003zm-5-1.624a1.622 1.622 0 1 0 0 3.246 1.623 1.623 0 1 0 0-3.246zm470.653-5.77a2.392 2.392 0 0 0 4.782 0 2.392 2.392 0 0 0-4.782 0zm-458.261 0a2.39 2.39 0 1 0 4.782 0 2.39 2.39 0 0 0-4.782 0zm-7.392 0a2.39 2.39 0 1 0 4.781.001 2.39 2.39 0 0 0-4.781 0zm-7.39 0a2.39 2.39 0 1 0 4.78.002 2.39 2.39 0 0 0-4.78-.001zm421.305-7.39a2.39 2.39 0 1 0 4.78.001 2.39 2.39 0 0 0-4.78 0zm-7.39 0a2.39 2.39 0 1 0 4.78 0 2.39 2.39 0 1 0-4.78 0zm-7.393 0a2.392 2.392 0 1 0 4.783-.002 2.392 2.392 0 0 0-4.783.002zm-7.392 0a2.392 2.392 0 1 0 4.784-.002 2.392 2.392 0 0 0-4.784.002zm-376.957 0a2.392 2.392 0 1 0 4.783-.001 2.392 2.392 0 0 0-4.783.001zm-7.391 0a2.39 2.39 0 1 0 4.782 0 2.39 2.39 0 0 0-4.782 0zm-7.392 0a2.391 2.391 0 1 0 4.783-.001 2.391 2.391 0 0 0-4.783.001zm422.753-7.391a.943.943 0 1 0 1.885 0 .943.943 0 0 0-1.885 0zm-8.838 0a2.39 2.39 0 0 0 2.39 2.39 2.39 2.39 0 1 0-2.39-2.39zm-7.39 0a2.39 2.39 0 1 0 4.78-.001 2.39 2.39 0 0 0-4.78.001zm-7.393 0a2.39 2.39 0 1 0 4.78 0 2.39 2.39 0 0 0-4.78 0zm-7.392 0a2.391 2.391 0 1 0 4.782-.002 2.391 2.391 0 0 0-4.782.002zm-22.175 0a2.392 2.392 0 1 0 4.784-.004 2.392 2.392 0 0 0-4.784.004zm-7.389 0a2.39 2.39 0 1 0 4.78 0 2.39 2.39 0 0 0-4.78 0zm-7.393 0a2.39 2.39 0 1 0 4.78 0 2.39 2.39 0 0 0-4.78 0zm-170 0a2.392 2.392 0 1 0 4.781-.003 2.392 2.392 0 0 0-4.78.003zm-7.392 0a2.39 2.39 0 1 0 4.781-.001 2.39 2.39 0 0 0-4.781.001zm-7.39 0a2.39 2.39 0 1 0 4.78-.001 2.39 2.39 0 0 0-4.78.001zm-140.436 0a2.39 2.39 0 1 0 4.781 0 2.39 2.39 0 1 0-4.78 0zm-7.391 0a2.39 2.39 0 1 0 4.78 0 2.39 2.39 0 0 0-4.78 0zm-2.61 0a2.39 2.39 0 1 0-4.781-.002 2.39 2.39 0 0 0 4.781.002zm-7.391 0a2.391 2.391 0 1 0-4.782 0 2.391 2.391 0 0 0 4.782 0zm-7.391 0a2.391 2.391 0 1 0-4.783 0 2.391 2.391 0 0 0 4.783 0zm416.524-7.392a2.39 2.39 0 1 0 4.781.001 2.39 2.39 0 0 0-4.781-.001zm-2.61 0a2.39 2.39 0 1 0-4.782 0 2.391 2.391 0 1 0 4.782 0zm-7.39 0a2.391 2.391 0 1 0-4.783.001 2.391 2.391 0 0 0 4.783-.001zm-12.174 0a2.391 2.391 0 1 0 4.782 0 2.391 2.391 0 0 0-4.782 0zm-2.61 0a2.39 2.39 0 1 0-4.782 0 2.392 2.392 0 0 0 4.782 0zm-12.172 0a2.39 2.39 0 1 0 4.78 0 2.39 2.39 0 0 0-4.78 0zm-7.392 0a2.39 2.39 0 1 0 4.78.002 2.39 2.39 0 0 0-4.78-.002zm-2.61 0a2.39 2.39 0 0 0-2.39-2.39 2.393 2.393 0 0 0-2.393 2.39 2.393 2.393 0 0 0 2.394 2.392 2.39 2.39 0 0 0 2.388-2.392zm-12.172 0a2.391 2.391 0 1 0 4.782.001 2.391 2.391 0 0 0-4.782-.001zm-7.393 0a2.391 2.391 0 1 0 4.782 0 2.391 2.391 0 0 0-4.782 0zm-165.217 0a2.392 2.392 0 1 0-4.784.003 2.392 2.392 0 0 0 4.784-.003zm-7.393 0a2.39 2.39 0 1 0-4.782 0 2.391 2.391 0 1 0 4.782 0zm-12.171 0a2.39 2.39 0 1 0 4.78 0 2.391 2.391 0 0 0-4.78 0zm-133.029 0a2.374 2.374 0 1 0 4.749.001 2.374 2.374 0 0 0-4.749-.001zm-2.627 0a2.391 2.391 0 1 0-4.78 0 2.391 2.391 0 0 0 4.78 0zm-7.39 0a2.39 2.39 0 1 0-4.782 0 2.39 2.39 0 0 0 4.781 0zm-7.392 0a2.39 2.39 0 1 0-4.782 0 2.392 2.392 0 0 0 4.782 0zm-7.391 0a2.39 2.39 0 1 0-4.781 0 2.39 2.39 0 0 0 4.78 0zm-7.391 0a2.39 2.39 0 1 0-4.781 0 2.39 2.39 0 0 0 4.78 0zm421.306-7.391a2.392 2.392 0 1 0-4.785.003 2.392 2.392 0 0 0 4.785-.003zm-12.174 0a2.391 2.391 0 1 0 4.782 0 2.391 2.391 0 0 0-4.782 0zm-2.608 0c0-1.32-1.071-2.391-2.393-2.391a2.39 2.39 0 0 0-2.388 2.39 2.39 2.39 0 1 0 4.78 0zm-7.392 0a2.39 2.39 0 1 0-4.784 0 2.39 2.39 0 0 0 4.784 0zm-12.174 0a2.392 2.392 0 1 0 4.783 0 2.392 2.392 0 0 0-4.783 0zm-2.61 0a2.391 2.391 0 1 0-4.782 0 2.391 2.391 0 0 0 4.783 0zm-12.172 0a2.39 2.39 0 1 0 4.78.002 2.39 2.39 0 0 0-4.78-.002zm-2.61 0a2.39 2.39 0 1 0-4.782 0 2.39 2.39 0 0 0 4.781 0zm-7.391 0a2.39 2.39 0 1 0-4.781 0 2.39 2.39 0 0 0 4.78 0zm-7.393 0a2.39 2.39 0 1 0-4.78 0 2.391 2.391 0 1 0 4.78 0zm-167.39 0a2.391 2.391 0 1 0 4.782 0 2.391 2.391 0 0 0-4.782 0zm-2.61 0a2.391 2.391 0 1 0-4.782.001 2.391 2.391 0 0 0 4.782-.001zm-7.39 0a2.391 2.391 0 1 0-4.783 0 2.391 2.391 0 0 0 4.782 0zm-7.391 0a2.39 2.39 0 1 0-4.78 0 2.39 2.39 0 1 0 4.78 0zm-12.173 0a2.39 2.39 0 1 0 4.78 0 2.391 2.391 0 0 0-4.78 0zm-125.653 0a2.39 2.39 0 1 0 4.78.001 2.39 2.39 0 0 0-4.78-.001zm-2.61 0a2.39 2.39 0 1 0-4.783 0 2.391 2.391 0 1 0 4.782 0zm-7.392 0a2.391 2.391 0 1 0-4.782 0 2.391 2.391 0 0 0 4.782 0zm-7.39 0a2.39 2.39 0 1 0-4.782 0 2.39 2.39 0 0 0 4.781 0zm-7.392 0a2.391 2.391 0 1 0-4.783.001 2.391 2.391 0 0 0 4.783-.001zm-7.391 0a2.391 2.391 0 1 0-4.782 0 2.391 2.391 0 0 0 4.782 0zm413.914-7.39a2.392 2.392 0 1 0-4.781 0 2.392 2.392 0 0 0 4.781 0zm-7.39 0a2.39 2.39 0 1 0-4.78 0c-.001 1.319 1.067 2.39 2.387 2.39a2.391 2.391 0 0 0 2.393-2.39zm-7.392 0a2.39 2.39 0 1 0-4.783-.002 2.39 2.39 0 0 0 4.783.001zm-7.392 0a2.392 2.392 0 1 0-4.784 0 2.392 2.392 0 0 0 4.784 0zm-7.391 0a2.391 2.391 0 1 0-4.783-.001 2.391 2.391 0 0 0 4.783 0zm-7.392 0a2.39 2.39 0 1 0-4.782-.003 2.39 2.39 0 0 0 4.782.002zm-7.392 0a2.391 2.391 0 1 0-4.781-.002 2.391 2.391 0 0 0 4.781.001zm-7.39 0a2.39 2.39 0 1 0-4.781-.003 2.39 2.39 0 0 0 4.78.002zm-7.393 0a2.39 2.39 0 1 0-4.78-.004 2.39 2.39 0 0 0 4.78.003zm-137.826 0a2.392 2.392 0 0 0 4.784 0 2.393 2.393 0 0 0-4.784 0zm-7.39 0a2.39 2.39 0 1 0 4.781-.001 2.39 2.39 0 0 0-4.78 0zm-17.393 0a2.39 2.39 0 1 0-4.782 0 2.392 2.392 0 0 0 4.782 0zm-7.39 0a2.392 2.392 0 1 0-4.784 0 2.392 2.392 0 0 0 4.783 0zm-7.392 0a2.391 2.391 0 1 0-4.782-.001 2.391 2.391 0 0 0 4.782 0zm-7.39 0a2.392 2.392 0 1 0-4.784 0 2.392 2.392 0 0 0 4.784 0zm-7.392 0a2.392 2.392 0 1 0-4.784 0 2.392 2.392 0 0 0 4.784 0zm-115.652 0a2.39 2.39 0 1 0 4.78-.001 2.39 2.39 0 0 0-4.78 0zm-7.391 0a2.39 2.39 0 1 0 4.78-.001 2.39 2.39 0 0 0-4.78 0zm-2.61 0a2.392 2.392 0 1 0-4.783 0 2.392 2.392 0 0 0 4.784 0zm-7.392 0a2.39 2.39 0 1 0-4.78-.003 2.39 2.39 0 0 0 4.78.002zm-7.39 0a2.391 2.391 0 1 0-4.783-.001 2.391 2.391 0 0 0 4.782 0zm-7.393 0a2.391 2.391 0 1 0-4.781-.002 2.391 2.391 0 0 0 4.781.001zm-7.39 0a2.392 2.392 0 1 0-4.784 0 2.392 2.392 0 0 0 4.784 0zm-7.391 0a2.391 2.391 0 1 0-4.783-.002 2.391 2.391 0 0 0 4.783.001zm406.524-7.393a2.39 2.39 0 1 0-4.782.001 2.39 2.39 0 0 0 4.782-.001zm-7.393 0a2.39 2.39 0 1 0-4.78 0 2.39 2.39 0 0 0 4.78 0zm-7.39 0a2.39 2.39 0 1 0-4.782.001 2.39 2.39 0 0 0 4.781-.001zm-7.392 0a2.392 2.392 0 1 0-2.39 2.392c1.319 0 2.39-1.071 2.39-2.392zm-7.392 0a2.39 2.39 0 1 0-4.781 0 2.391 2.391 0 1 0 4.78 0zm-7.392 0a2.39 2.39 0 1 0-4.783.001 2.39 2.39 0 0 0 4.783-.001zm-152.609 0a2.393 2.393 0 0 0 4.784 0 2.391 2.391 0 0 0-4.784 0zm-22.172 0a2.39 2.39 0 1 0 4.78.002 2.39 2.39 0 0 0-4.78-.002zm-2.611 0a2.392 2.392 0 1 0-4.781.003 2.392 2.392 0 0 0 4.781-.003zm-12.171 0a2.39 2.39 0 1 0 4.78.002 2.39 2.39 0 0 0-4.78-.002zm-2.61 0a2.39 2.39 0 0 0-2.392-2.39 2.39 2.39 0 1 0 2.392 2.39zm-7.391 0a2.39 2.39 0 1 0-4.782.001 2.39 2.39 0 0 0 4.782-.001zm-7.392 0a2.39 2.39 0 1 0-4.781 0 2.39 2.39 0 0 0 4.78 0zm-12.173 0a2.39 2.39 0 1 0 4.781.002 2.39 2.39 0 0 0-4.78-.002zm-103.479 0a2.391 2.391 0 1 0 4.782 0 2.391 2.391 0 0 0-4.782 0zm-2.61 0a2.39 2.39 0 1 0-4.78 0 2.39 2.39 0 0 0 4.78 0zm-7.39 0a2.39 2.39 0 1 0-4.782 0 2.39 2.39 0 0 0 4.781 0zm-7.393 0a2.39 2.39 0 1 0-4.782 0 2.39 2.39 0 0 0 4.782 0zm-7.391 0a2.39 2.39 0 1 0-4.781 0 2.391 2.391 0 1 0 4.78 0zm-7.392 0a2.39 2.39 0 1 0-4.782 0 2.39 2.39 0 0 0 4.782 0zm-7.39 0a2.39 2.39 0 1 0-4.781 0 2.39 2.39 0 0 0 4.78 0zm-7.391 0a2.39 2.39 0 1 0-4.782 0 2.391 2.391 0 1 0 4.782 0zm384.349-7.391a2.392 2.392 0 0 0-4.784 0 2.391 2.391 0 1 0 4.784 0zm-182.175 0a2.39 2.39 0 1 0 4.78 0 2.391 2.391 0 0 0-4.78 0zm-2.617 0a2.384 2.384 0 1 0-4.767-.001 2.384 2.384 0 0 0 4.767 0zm-12.166 0a2.39 2.39 0 1 0 2.392-2.39 2.392 2.392 0 0 0-2.392 2.39zm-7.39 0a2.39 2.39 0 1 0 4.782.002 2.39 2.39 0 0 0-4.781-.002zm-7.392 0a2.39 2.39 0 1 0 4.781.002 2.39 2.39 0 0 0-4.781-.002zm-7.39 0a2.391 2.391 0 1 0 4.782 0 2.391 2.391 0 0 0-4.783 0zm-2.61 0a2.39 2.39 0 1 0-4.782.001 2.39 2.39 0 0 0 4.782-.001zm-12.173 0a2.39 2.39 0 1 0 4.781.002 2.39 2.39 0 0 0-4.78-.002zm-103.479 0a2.391 2.391 0 1 0 4.782 0 2.391 2.391 0 0 0-4.782 0zm-2.61 0a2.39 2.39 0 1 0-4.781.001 2.39 2.39 0 0 0 4.781-.001zm-9.782 2.391a2.392 2.392 0 1 0-.001-4.783 2.392 2.392 0 0 0 .001 4.783zm-7.391 0a2.39 2.39 0 1 0 0-4.78 2.39 2.39 0 0 0 0 4.78zm-9.782-2.391a2.391 2.391 0 1 0 4.782 0 2.391 2.391 0 0 0-4.782 0zm-7.392 0a2.392 2.392 0 1 0 4.783 0 2.392 2.392 0 0 0-4.783 0zm-7.39 0a2.391 2.391 0 1 0 4.782 0 2.391 2.391 0 0 0-4.783 0zm-7.392 0a2.391 2.391 0 1 0 4.782 0 2.391 2.391 0 0 0-4.782 0zm-2.61 0a2.39 2.39 0 1 0-4.781.001 2.39 2.39 0 0 0 4.781-.001zm209.566-7.39a2.392 2.392 0 1 0 4.783-.004 2.392 2.392 0 0 0-4.783.003zm-7.39 0a2.39 2.39 0 1 0 4.78-.001 2.39 2.39 0 0 0-4.78 0zm-7.393 0c0 1.318 1.072 2.39 2.392 2.39a2.39 2.39 0 1 0-2.392-2.39zm-7.39 0a2.39 2.39 0 1 0 4.781-.001 2.39 2.39 0 0 0-4.78 0zm-7.392 0a2.39 2.39 0 1 0 4.78-.001 2.39 2.39 0 0 0-4.78 0zm-7.39 0a2.391 2.391 0 1 0 4.782-.003 2.391 2.391 0 0 0-4.783.002zm-2.61 0a2.392 2.392 0 1 0-4.784 0 2.392 2.392 0 0 0 4.784 0zm-108.261 0a2.391 2.391 0 1 0 4.783-.004 2.391 2.391 0 0 0-4.783.003zm-7.39 0a2.39 2.39 0 1 0 4.78-.002 2.39 2.39 0 0 0-4.78.001zm-2.611 0a2.391 2.391 0 1 0-4.782-.002 2.391 2.391 0 0 0 4.782.001zm-12.172 0a2.39 2.39 0 1 0 4.781-.002 2.39 2.39 0 0 0-4.781.001zm-2.61 0a2.39 2.39 0 1 0-4.782-.003 2.39 2.39 0 0 0 4.781.002zm-7.392 0a2.39 2.39 0 1 0-4.782-.003 2.39 2.39 0 0 0 4.782.002zm-12.173 0a2.391 2.391 0 1 0 4.783-.004 2.391 2.391 0 0 0-4.783.003zm-7.39 0a2.391 2.391 0 1 0 4.782-.003 2.391 2.391 0 0 0-4.783.002zm-7.392 0a2.39 2.39 0 1 0 4.782-.002 2.39 2.39 0 0 0-4.782.001zm-7.391 0a2.391 2.391 0 1 0 4.782-.003 2.391 2.391 0 0 0-4.782.002zm-7.392 0a2.39 2.39 0 1 0 4.781-.001 2.39 2.39 0 0 0-4.78 0zm426.089-7.393a2.39 2.39 0 1 0-4.781.003 2.39 2.39 0 0 0 4.78-.003zm-7.393 0a2.39 2.39 0 1 0-4.78.002 2.39 2.39 0 0 0 4.78-.002zm-71.302 0a2.39 2.39 0 1 0 4.78.003 2.39 2.39 0 0 0-4.78-.003zm-133.045 0a2.39 2.39 0 1 0 4.782 0 2.39 2.39 0 0 0-4.782 0zm-7.393 0a2.392 2.392 0 0 0 4.782 0 2.391 2.391 0 0 0-4.782 0zm-7.39 0a2.39 2.39 0 1 0 4.78.003 2.39 2.39 0 0 0-4.78-.003zm-7.392 0a2.39 2.39 0 1 0 4.782 0 2.39 2.39 0 0 0-2.391-2.39 2.39 2.39 0 0 0-2.391 2.39zm-7.39 0a2.391 2.391 0 1 0 4.781.001 2.391 2.391 0 0 0-4.782 0zm-2.61 0a2.39 2.39 0 1 0-4.78.002 2.39 2.39 0 0 0 4.78-.002zm-12.167 0a2.384 2.384 0 1 0 4.769 0 2.384 2.384 0 0 0-4.769 0zm-96.094 0a2.391 2.391 0 1 0 4.782 0 2.391 2.391 0 0 0-4.782 0zm-2.61 0a2.39 2.39 0 1 0-4.78.002 2.39 2.39 0 0 0 4.78-.002zm-12.172 0a2.39 2.39 0 1 0 4.781.002 2.39 2.39 0 0 0-4.781-.002zm-7.391 0a2.39 2.39 0 1 0 4.78.002 2.39 2.39 0 0 0-4.78-.002zm-7.393 0a2.391 2.391 0 1 0 4.783 0 2.391 2.391 0 0 0-4.783 0zm-7.39 0a2.39 2.39 0 1 0 4.78.002 2.39 2.39 0 0 0-4.78-.002zm-2.61 0a2.39 2.39 0 1 0-2.39 2.392 2.39 2.39 0 0 0 2.39-2.392zm-7.391 0a2.39 2.39 0 1 0-4.78.002 2.39 2.39 0 0 0 4.78-.002zm-7.391 0a2.39 2.39 0 0 0-2.391-2.39 2.39 2.39 0 1 0 0 4.782 2.39 2.39 0 0 0 2.39-2.392zm-12.173 0a2.391 2.391 0 1 0 4.782 0 2.391 2.391 0 0 0-4.782 0zm-7.392 0a2.39 2.39 0 1 0 4.783 0 2.39 2.39 0 0 0-2.392-2.39 2.39 2.39 0 0 0-2.39 2.39zm-6.383 0a1.383 1.383 0 1 0 2.766.001 1.383 1.383 0 0 0-2.766 0zm424.818-7.39a2.13 2.13 0 1 0-4.26-.003 2.13 2.13 0 0 0 4.26.003zm-7.13 0a2.392 2.392 0 1 0-4.782 0 2.39 2.39 0 0 0 4.782 0zm-12.049 0a2.266 2.266 0 1 0 4.533-.003 2.266 2.266 0 0 0-4.533.003zm-17.516 0a2.392 2.392 0 1 0-4.784 0 2.392 2.392 0 0 0 4.784 0zm-19.564 0a2.39 2.39 0 1 0 4.78-.001 2.39 2.39 0 0 0-4.78.001zm-22.169 0a2.385 2.385 0 1 0 4.77-.004 2.385 2.385 0 0 0-4.77.004zm-118.26 0a2.383 2.383 0 1 0 4.767 0 2.383 2.383 0 1 0-4.767 0zm-2.616 0a2.392 2.392 0 1 0-4.782 0 2.391 2.391 0 0 0 4.782 0zm-7.393 0a2.391 2.391 0 1 0-4.782-.002 2.391 2.391 0 0 0 4.782.002zm-7.39 0a2.39 2.39 0 1 0 0 0zm-7.392 0a2.391 2.391 0 1 0-4.783-.001 2.391 2.391 0 0 0 4.783.001zm-7.39 0a2.392 2.392 0 1 0-4.781-.001 2.392 2.392 0 0 0 4.78.001zm-7.392 0a2.39 2.39 0 1 0 0 0zm-7.392 0a2.39 2.39 0 1 0 0 0zm-110.87 0a2.391 2.391 0 1 0-4.783-.002 2.391 2.391 0 0 0 4.783.002zm-7.39 0a2.391 2.391 0 1 0 0 0zm-7.393 0a2.39 2.39 0 1 0-4.782-.003 2.39 2.39 0 0 0 4.782.003zm-7.391 0a2.39 2.39 0 1 0-4.782-.003 2.39 2.39 0 0 0 4.782.003zm-7.392 0a2.391 2.391 0 1 0-4.782-.002 2.391 2.391 0 0 0 4.782.002zm-7.39 0a2.392 2.392 0 1 0-4.784 0 2.392 2.392 0 0 0 4.784 0zm-7.391 0a2.391 2.391 0 1 0-4.783-.002 2.391 2.391 0 0 0 4.783.002zm-7.392 0a2.392 2.392 0 1 0-4.783 0 2.392 2.392 0 0 0 4.783 0zm-7.391 0a2.391 2.391 0 1 0-4.783-.002 2.391 2.391 0 0 0 4.783.002zm-9.782-.765a.764.764 0 1 0-.001 1.529.764.764 0 0 0 0-1.529zm384.35-5.005a1.622 1.622 0 0 0 0-3.245c-.897 0-1.625.727-1.625 1.622 0 .897.728 1.623 1.624 1.623zm-5.003-1.623a2.39 2.39 0 1 0-4.78 0 2.392 2.392 0 0 0 4.78 0zm-12.171 0a2.39 2.39 0 1 0 4.78.003 2.39 2.39 0 0 0-4.78-.003zm-7.393 0a2.391 2.391 0 1 0 4.782 0 2.391 2.391 0 0 0-4.782 0zm-14.781 0a2.39 2.39 0 1 0 4.78.004 2.39 2.39 0 0 0-4.78-.004zm-106.09 0a2.391 2.391 0 1 0-4.782.003 2.391 2.391 0 0 0 4.783-.003zm-7.392 0a2.391 2.391 0 1 0-4.78.002 2.391 2.391 0 0 0 4.78-.002zm-7.39 0a2.39 2.39 0 1 0-4.781 0 2.39 2.39 0 1 0 4.78 0zm-7.392 0a2.39 2.39 0 1 0-4.78 0 2.39 2.39 0 0 0 4.78 0zm-12.171 0a2.39 2.39 0 1 0 4.78.003 2.39 2.39 0 0 0-4.78-.003zm-2.612 0a2.39 2.39 0 1 0-2.39 2.392 2.39 2.39 0 0 0 2.39-2.392zm-12.172 0a2.391 2.391 0 1 0 4.783.001 2.391 2.391 0 0 0-4.783 0zm-7.39 0a2.39 2.39 0 1 0 4.78.004 2.39 2.39 0 0 0-4.78-.004zm-7.392 0a2.39 2.39 0 1 0 4.781.003 2.39 2.39 0 0 0-4.78-.003zm-120.872 0a2.391 2.391 0 1 0-4.782.003 2.391 2.391 0 0 0 4.782-.003zm-7.391 0a2.39 2.39 0 1 0-4.782 0 2.392 2.392 0 0 0 4.782 0zm-7.392 0a2.39 2.39 0 1 0-4.78.001 2.39 2.39 0 0 0 4.78 0zm-7.39 0a2.391 2.391 0 1 0-4.782.002 2.391 2.391 0 0 0 4.782-.002zm-7.391 0a2.39 2.39 0 1 0-4.781.001 2.39 2.39 0 0 0 4.78 0zm-7.392 0a2.39 2.39 0 1 0-4.781.002 2.39 2.39 0 0 0 4.781-.002zm-7.391 0a2.39 2.39 0 1 0-4.78.001 2.39 2.39 0 0 0 4.78 0zm369.565-7.39a2.39 2.39 0 1 0-4.78-.003 2.39 2.39 0 0 0 4.78.003zm-34.345 0a2.39 2.39 0 1 0 4.78 0 2.392 2.392 0 0 0-4.78 0zm-103.473 0a2.385 2.385 0 1 0 4.769-.003 2.385 2.385 0 0 0-4.77.003zm-2.616 0a2.39 2.39 0 1 0-4.782-.002 2.39 2.39 0 0 0 4.782.002zm-7.393 0a2.39 2.39 0 1 0-4.78 0 2.391 2.391 0 0 0 4.78 0zm-7.39 0a2.39 2.39 0 1 0-4.782-.002 2.39 2.39 0 0 0 4.781.002zm-9.782 2.39a2.39 2.39 0 1 0 0-4.78 2.39 2.39 0 0 0 0 4.78zm-5-2.39a2.392 2.392 0 1 0-4.784 0 2.392 2.392 0 0 0 4.783 0zm-7.393 0a2.39 2.39 0 1 0-4.78-.003 2.39 2.39 0 0 0 4.78.003zm-7.39 0a2.39 2.39 0 1 0-4.784-.002 2.39 2.39 0 0 0 4.785.002zm-7.391 0a2.392 2.392 0 1 0-4.784 0 2.392 2.392 0 0 0 4.784 0zm-7.392 0a2.39 2.39 0 1 0 0 0zm-12.167 0a2.384 2.384 0 1 0 4.768-.002 2.384 2.384 0 0 0-4.768.002zm-22.18 0a2.39 2.39 0 1 0 4.78 0 2.39 2.39 0 0 0-4.78 0zm-7.392 0a2.391 2.391 0 1 0 4.783-.003 2.391 2.391 0 0 0-4.783.003zm-83.92 0a2.385 2.385 0 1 0-4.77 0 2.385 2.385 0 0 0 4.77 0zm-7.385 0a2.39 2.39 0 1 0-4.782-.002 2.39 2.39 0 0 0 4.782.002zm-7.392 0a2.391 2.391 0 1 0-4.782 0 2.391 2.391 0 0 0 4.782 0zm-7.39 0a2.392 2.392 0 1 0-4.784 0 2.392 2.392 0 0 0 4.783 0zm-7.391 0a2.392 2.392 0 1 0-4.784 0 2.392 2.392 0 0 0 4.784 0zm-7.392 0a2.392 2.392 0 1 0-4.783 0 2.392 2.392 0 0 0 4.783 0zm-7.391 0a2.392 2.392 0 1 0-4.783 0 2.392 2.392 0 0 0 4.783 0zm381.958-9.26a1.868 1.868 0 0 0 0 3.735 1.867 1.867 0 1 0 0-3.735zm-145.435 1.868a2.392 2.392 0 1 0-4.784.004 2.392 2.392 0 0 0 4.784-.004zm-7.392 0a2.391 2.391 0 1 0-4.782.003 2.391 2.391 0 0 0 4.782-.003zm-12.174 0a2.39 2.39 0 1 0 4.78 0 2.391 2.391 0 0 0-4.78 0zm-2.61 0a2.39 2.39 0 1 0-4.78 0 2.39 2.39 0 1 0 4.78 0zm-7.391 0a2.39 2.39 0 1 0-4.78 0 2.39 2.39 0 0 0 4.78 0zm-12.171 0a2.39 2.39 0 1 0 4.78.002 2.39 2.39 0 0 0-4.78-.002zm-2.612 0a2.39 2.39 0 1 0-2.39 2.392 2.39 2.39 0 0 0 2.39-2.392zm-12.172 0a2.39 2.39 0 1 0 4.78.002 2.39 2.39 0 0 0-4.78-.002zm-7.392 0a2.391 2.391 0 1 0 4.783 0 2.391 2.391 0 0 0-4.783 0zm-2.609 0a2.391 2.391 0 1 0-4.782.002 2.391 2.391 0 0 0 4.782-.002zm-12.173 0a2.39 2.39 0 1 0 4.781.002 2.39 2.39 0 0 0-4.78-.002zm-7.392 0a2.393 2.393 0 0 0 4.783 0 2.392 2.392 0 0 0-4.783 0zm-7.39 0a2.39 2.39 0 1 0 4.78.002 2.39 2.39 0 0 0-4.78-.002zm-7.392 0a2.391 2.391 0 1 0 4.782 0 2.391 2.391 0 0 0-4.782 0zm-7.392 0a2.392 2.392 0 0 0 4.783 0 2.391 2.391 0 0 0-4.783 0zm-7.39 0a2.391 2.391 0 1 0 4.782 0 2.391 2.391 0 0 0-4.782 0zm-91.307 0a2.39 2.39 0 1 0-4.78 0 2.39 2.39 0 0 0 4.78 0zm-12.172 0a2.392 2.392 0 1 0 4.783 0 2.392 2.392 0 0 0-4.783 0zm-7.391 0a2.391 2.391 0 1 0 4.782 0 2.391 2.391 0 0 0-4.782 0zm-5 2.391a2.391 2.391 0 1 0-.002-4.782 2.391 2.391 0 0 0 .001 4.782zm-16.407-2.391a1.623 1.623 0 1 0 3.245 0 1.623 1.623 0 0 0-3.245 0zm385.972-9.775a2.385 2.385 0 0 0 0 4.768 2.383 2.383 0 0 0 2.383-2.384 2.383 2.383 0 0 0-2.383-2.384zm-27.175 2.384a2.39 2.39 0 0 0-2.39-2.391 2.392 2.392 0 1 0 2.39 2.392zm-7.39 0a2.391 2.391 0 1 0-4.783 0 2.391 2.391 0 0 0 4.783 0zm-49.13 0a2.39 2.39 0 0 0 4.782 0 2.391 2.391 0 1 0-4.782 0zm-5.944 0a.944.944 0 1 0 1.889 0 .944.944 0 0 0-1.889 0zm-55.796 0a2.391 2.391 0 1 0-4.782 0 2.391 2.391 0 0 0 4.782 0zm-7.393 0a2.39 2.39 0 1 0-4.78 0 2.39 2.39 0 0 0 4.78 0zm-7.39 0a2.39 2.39 0 1 0-4.78-.002 2.39 2.39 0 0 0 4.78.002zm-9.783 2.39a2.39 2.39 0 1 0 0-4.781 2.391 2.391 0 0 0 0 4.782zm-5-2.39a2.391 2.391 0 1 0-4.782 0 2.391 2.391 0 0 0 4.782 0zm-7.392 0a2.39 2.39 0 1 0-4.781 0 2.39 2.39 0 0 0 2.39 2.39c1.322 0 2.39-1.07 2.39-2.39zm-12.172 0a2.392 2.392 0 1 0 2.39-2.392 2.39 2.39 0 0 0-2.39 2.392zm-2.61 0a2.391 2.391 0 1 0-4.782 0 2.391 2.391 0 0 0 4.783 0zm-7.39 0a2.391 2.391 0 1 0-4.783 0 2.391 2.391 0 0 0 4.782 0zm-7.391 0a2.392 2.392 0 1 0-4.784.001 2.392 2.392 0 0 0 4.784 0zm-7.392 0a2.391 2.391 0 1 0-4.783 0 2.391 2.391 0 0 0 4.783 0zm-7.392 0a2.39 2.39 0 1 0-4.78-.002 2.39 2.39 0 0 0 4.78.002zm-7.393 0a2.39 2.39 0 1 0-4.78-.003 2.39 2.39 0 0 0 4.78.003zm-7.39 0a2.392 2.392 0 1 0-4.783.001 2.392 2.392 0 0 0 4.784 0zm-7.391 0a2.39 2.39 0 1 0-4.783 0 2.391 2.391 0 0 0 4.783 0zm-12.173 0a2.39 2.39 0 1 0 4.781 0 2.39 2.39 0 1 0-4.78 0zm-133.044 0a2.39 2.39 0 1 0 4.782 0 2.39 2.39 0 1 0-4.782 0zm396.523-7.392a2.391 2.391 0 1 0-4.782.002 2.391 2.391 0 0 0 4.782-.002zm-29.567 0a2.39 2.39 0 1 0-4.78.001 2.39 2.39 0 0 0 4.78 0zm-7.39 0a2.39 2.39 0 1 0-4.782.002 2.39 2.39 0 0 0 4.782-.002zm-12.174 0a2.391 2.391 0 1 0 4.782.001 2.391 2.391 0 0 0-4.782 0zm-36.956 0a2.391 2.391 0 1 0 4.782.001 2.391 2.391 0 0 0-4.782 0zm-7.391 0a2.39 2.39 0 1 0 4.78.003 2.39 2.39 0 0 0-4.78-.003zm-44.348 0a2.39 2.39 0 1 0 4.781.002 2.39 2.39 0 0 0-4.781-.002zm-2.612 0a2.39 2.39 0 1 0-4.781 0 2.391 2.391 0 1 0 4.78 0zm-7.39 0a2.391 2.391 0 1 0-4.781.002 2.391 2.391 0 0 0 4.782-.002zm-14.783 0a2.39 2.39 0 1 0-4.78 0 2.39 2.39 0 1 0 4.78 0zm-7.391 0a2.39 2.39 0 1 0-4.78.001 2.39 2.39 0 0 0 4.78 0zm-7.39 0a2.39 2.39 0 1 0-4.782.002 2.39 2.39 0 0 0 4.781-.002zm-7.393 0a2.39 2.39 0 1 0-2.39 2.392 2.39 2.39 0 0 0 2.39-2.392zm-7.39 0a2.392 2.392 0 0 0-4.782 0 2.39 2.39 0 0 0 2.39 2.392c1.32 0 2.393-1.07 2.393-2.392zm-12.174 0a2.39 2.39 0 1 0 4.782.002 2.39 2.39 0 0 0-4.782-.002zm-2.609 0a2.391 2.391 0 1 0-4.782.002 2.391 2.391 0 0 0 4.782-.002zm-7.392 0a2.39 2.39 0 1 0-4.78 0 2.39 2.39 0 0 0 4.78 0zm-7.39 0a2.391 2.391 0 1 0-4.783.002 2.391 2.391 0 0 0 4.783-.002zm-7.392 0a2.39 2.39 0 1 0-4.781 0 2.39 2.39 0 1 0 4.78 0zm-7.393 0a2.39 2.39 0 1 0-4.78 0 2.39 2.39 0 1 0 4.78 0zm-12.172 0a2.391 2.391 0 1 0 4.783 0 2.391 2.391 0 0 0-4.783 0zm-7.392 0a2.392 2.392 0 1 0 4.784 0 2.392 2.392 0 0 0-4.784 0zm-2.609 0a2.39 2.39 0 1 0-4.78 0 2.39 2.39 0 0 0 4.78 0zm-144.202 0a1.376 1.376 0 1 0 2.752.002 1.376 1.376 0 0 0-2.752-.002zm-8.406 0a2.39 2.39 0 1 0 4.782.002 2.39 2.39 0 0 0-4.782-.002zm-7.391 0a2.39 2.39 0 1 0 4.781.002 2.39 2.39 0 0 0-4.781-.002zm389.13-7.39a2.391 2.391 0 1 0-4.782 0 2.391 2.391 0 0 0 4.782 0zm-12.171 0a2.39 2.39 0 1 0 4.78 0 2.392 2.392 0 0 0-4.78 0zm-2.612 0a2.39 2.39 0 1 0-4.781-.002 2.39 2.39 0 0 0 4.78.002zm-12.172 0a2.392 2.392 0 0 0 4.782 0 2.39 2.39 0 1 0-4.782 0zm-14.782 0a2.39 2.39 0 1 0 4.781 0 2.39 2.39 0 1 0-4.78 0zm-7.392 0a2.391 2.391 0 1 0 4.782-.003 2.391 2.391 0 0 0-4.782.003zm-2.609 0a2.392 2.392 0 1 0-4.783 0 2.392 2.392 0 0 0 4.783 0zm-7.392 0a2.391 2.391 0 1 0-4.782-.001 2.391 2.391 0 0 0 4.782 0zm-41.739 0a2.39 2.39 0 1 0 4.78 0 2.39 2.39 0 0 0-4.78 0zm-2.61 0a2.39 2.39 0 1 0-4.78-.003 2.39 2.39 0 0 0 4.78.003zm-7.392 0a2.39 2.39 0 1 0-4.78-.003 2.39 2.39 0 0 0 4.78.003zm-7.39 0a2.392 2.392 0 1 0-4.783 0 2.392 2.392 0 0 0 4.784 0zm-7.392 0a2.39 2.39 0 0 0-2.389-2.392 2.393 2.393 0 0 0-2.393 2.392 2.392 2.392 0 0 0 4.782 0zm-7.39 0a2.39 2.39 0 1 0-4.782-.002 2.39 2.39 0 0 0 4.781.002zm-7.392 0a2.391 2.391 0 1 0-4.783 0 2.391 2.391 0 0 0 4.783 0zm-7.39 0a2.392 2.392 0 1 0-4.781 0 2.392 2.392 0 0 0 4.78 0zm-7.393 0a2.39 2.39 0 1 0-4.78-.003 2.39 2.39 0 0 0 4.78.003zm-7.39 0a2.39 2.39 0 1 0-4.781-.002 2.39 2.39 0 0 0 4.78.002zm-7.391 0a2.391 2.391 0 1 0-4.783-.001 2.391 2.391 0 0 0 4.783 0zm-7.392 0a2.39 2.39 0 1 0 0 0zm-7.392 0a2.391 2.391 0 1 0-4.782-.001 2.391 2.391 0 0 0 4.782 0zm-7.39 0a2.392 2.392 0 0 0-4.783 0 2.391 2.391 0 0 0 4.783 0zm-7.392 0a2.39 2.39 0 1 0-4.782-.002 2.39 2.39 0 0 0 4.782.002zm-7.393 0a2.39 2.39 0 1 0-4.78-.002 2.39 2.39 0 0 0 4.78.002zm-7.39 0a2.392 2.392 0 0 0-4.782 0 2.39 2.39 0 0 0 4.783 0zm-7.391 0a2.39 2.39 0 1 0-4.781-.002 2.39 2.39 0 0 0 4.78.002zm-7.392 0a2.391 2.391 0 1 0-4.782-.001 2.391 2.391 0 0 0 4.782 0zm-120.652-2.386a2.385 2.385 0 1 0 .002 4.77 2.385 2.385 0 0 0-.002-4.77zm-24.564 2.386a2.39 2.39 0 1 0 4.781 0 2.392 2.392 0 0 0-4.781 0zm-22.175 0a2.39 2.39 0 1 0 4.782-.002 2.39 2.39 0 0 0-4.782.002zm-7.391 0a2.39 2.39 0 1 0 4.781-.002 2.39 2.39 0 0 0-4.781.002zM333.36 165a2.39 2.39 0 1 0-4.78 0 2.39 2.39 0 1 0 4.78 0zm-7.396 0a2.386 2.386 0 1 0-4.771 0 2.386 2.386 0 0 0 4.77 0zm-7.387 0a2.392 2.392 0 0 0-4.782 0 2.393 2.393 0 0 0 2.393 2.391 2.39 2.39 0 0 0 2.389-2.391zm-14.782 0a2.391 2.391 0 1 0-4.782.001 2.391 2.391 0 0 0 4.782-.001zm-7.39 0a2.39 2.39 0 1 0-4.782.001 2.39 2.39 0 0 0 4.782-.001zm-7.393 0a2.39 2.39 0 1 0-4.781 0 2.391 2.391 0 1 0 4.78 0zm-7.39 0a2.392 2.392 0 0 0-4.782 0 2.392 2.392 0 0 0 4.782 0zm-12.175 0a2.391 2.391 0 1 0 4.783 0 2.391 2.391 0 0 0-4.783 0zm-2.608 0a2.391 2.391 0 1 0-4.782.002 2.391 2.391 0 0 0 4.782-.002zm-7.393 0a2.39 2.39 0 1 0-4.78 0 2.39 2.39 0 0 0 4.78 0zm-7.389 0a2.392 2.392 0 0 0-4.782 0 2.39 2.39 0 1 0 4.782 0zm-19.565 0a2.39 2.39 0 1 0 4.78.003 2.39 2.39 0 0 0-4.78-.003zm-29.56 0a2.383 2.383 0 1 0 4.768.001 2.383 2.383 0 0 0-4.768-.001zm-2.615 0a2.39 2.39 0 1 0-4.781 0 2.39 2.39 0 0 0 4.78 0zm-7.393 0a2.39 2.39 0 1 0-4.781 0 2.391 2.391 0 1 0 4.78 0zm-7.39 0a2.39 2.39 0 1 0-4.782 0 2.39 2.39 0 1 0 4.781 0zm-7.392 0a2.39 2.39 0 1 0-4.78 0 2.39 2.39 0 0 0 4.78 0zm-14.783 0a2.39 2.39 0 1 0-4.781 0 2.391 2.391 0 1 0 4.78 0zm-7.39 0a2.392 2.392 0 0 0-4.782 0 2.391 2.391 0 1 0 4.782 0zm-7.392 0a2.39 2.39 0 1 0-4.782 0 2.39 2.39 0 0 0 4.782 0zm-7.39 0a2.391 2.391 0 1 0-4.783.001 2.391 2.391 0 0 0 4.782-.001zm-7.391 0a2.392 2.392 0 0 0-4.783 0 2.392 2.392 0 0 0 4.782 0zm-7.392 0a2.391 2.391 0 1 0-4.782.001 2.391 2.391 0 0 0 4.782-.001zm-7.392 0a2.39 2.39 0 1 0-4.78 0 2.39 2.39 0 0 0 4.78 0zm-7.39 0a2.391 2.391 0 1 0-4.783.002 2.391 2.391 0 0 0 4.783-.002zm-7.392 0a2.391 2.391 0 1 0-4.783.002 2.391 2.391 0 0 0 4.783-.002zm-7.393 0a2.39 2.39 0 1 0-4.78 0 2.39 2.39 0 1 0 4.78 0zm-7.39 0a2.39 2.39 0 1 0-4.782 0 2.39 2.39 0 0 0 4.781 0zm-7.391 0a2.39 2.39 0 1 0-4.782 0 2.39 2.39 0 0 0 4.782 0zm-7.392 0a2.39 2.39 0 1 0-4.78 0 2.39 2.39 0 0 0 4.78 0zm-162.61 0a2.39 2.39 0 1 0-4.78 0 2.39 2.39 0 0 0 4.78 0zm-7.39 0a2.39 2.39 0 1 0-4.782 0 2.39 2.39 0 1 0 4.781 0zm421.305-7.392a2.39 2.39 0 1 0-4.78.001 2.39 2.39 0 0 0 4.78 0zm-7.392 0a2.39 2.39 0 1 0-4.781.001 2.39 2.39 0 0 0 4.781 0zm-7.391 0a2.39 2.39 0 1 0-4.781 0 2.392 2.392 0 0 0 4.78 0zm-7.392 0a2.39 2.39 0 1 0-4.781 0 2.392 2.392 0 0 0 4.78 0zm-7.39 0a2.392 2.392 0 1 0-4.783.004 2.392 2.392 0 0 0 4.784-.004zm-7.392 0a2.39 2.39 0 1 0-4.781 0 2.392 2.392 0 0 0 4.78 0zm-7.39 0a2.39 2.39 0 1 0-4.782.002 2.39 2.39 0 0 0 4.781-.002zm-7.392 0a2.391 2.391 0 1 0-4.783.003 2.391 2.391 0 0 0 4.783-.003zm-7.39 0a2.391 2.391 0 1 0-4.783.002 2.391 2.391 0 0 0 4.782-.002zm-7.394 0a2.39 2.39 0 1 0-4.78 0 2.39 2.39 0 0 0 4.78 0zm-7.389 0a2.392 2.392 0 0 0-4.782 0 2.39 2.39 0 1 0 4.782 0zm-7.392 0a2.39 2.39 0 1 0-4.78 0 2.39 2.39 0 0 0 4.78 0zm-7.393 0a2.39 2.39 0 1 0-4.78 0 2.39 2.39 0 1 0 4.78 0zm-12.172 0a2.39 2.39 0 1 0 4.782.002 2.39 2.39 0 0 0-4.782-.002zm-7.392 0a2.392 2.392 0 1 0 4.784 0 2.392 2.392 0 0 0-4.784 0zm-7.39 0a2.391 2.391 0 1 0 4.782 0 2.391 2.391 0 0 0-4.782 0zm-2.61 0a2.39 2.39 0 1 0-4.782 0 2.39 2.39 0 1 0 4.781 0zm-14.784 0a2.392 2.392 0 0 0-4.782 0 2.39 2.39 0 1 0 4.782 0zm-7.39 0a2.39 2.39 0 1 0-4.782 0 2.391 2.391 0 1 0 4.781 0zm-7.392 0a2.39 2.39 0 1 0-4.78 0 2.39 2.39 0 0 0 4.78 0zm-7.39 0a2.391 2.391 0 1 0-4.783.002 2.391 2.391 0 0 0 4.782-.002zm-7.393 0a2.39 2.39 0 1 0-4.781 0 2.392 2.392 0 0 0 4.78 0zm-7.391 0a2.39 2.39 0 1 0-4.782.002 2.39 2.39 0 0 0 4.782-.002zm-7.391 0a2.39 2.39 0 1 0-4.78 0 2.39 2.39 0 0 0 4.78 0zm-7.39 0a2.391 2.391 0 1 0-4.783.002 2.391 2.391 0 0 0 4.782-.002zm-7.393 0a2.39 2.39 0 1 0-4.782.002 2.39 2.39 0 0 0 4.782-.002zm-7.39 0a2.392 2.392 0 0 0-4.784 0 2.393 2.393 0 0 0 4.784 0zm-7.392 0a2.39 2.39 0 1 0-4.78 0 2.39 2.39 0 0 0 4.78 0zm-7.393 0a2.39 2.39 0 1 0-4.78 0 2.391 2.391 0 1 0 4.78 0zm-7.39 0a2.392 2.392 0 1 0-4.783.003 2.392 2.392 0 0 0 4.784-.003zm-7.392 0a2.392 2.392 0 1 0-4.781.003 2.392 2.392 0 0 0 4.781-.003zm-7.39 0a2.39 2.39 0 1 0-4.782 0 2.39 2.39 0 0 0 4.781 0zm-7.391 0a2.391 2.391 0 1 0-4.782.002 2.391 2.391 0 0 0 4.782-.002zm-137.826 0a2.391 2.391 0 1 0 4.782.001 2.391 2.391 0 0 0-4.782 0zm-32.176 0a2.39 2.39 0 1 0-4.78.001 2.39 2.39 0 0 0 4.78 0zm-7.392 0a2.391 2.391 0 1 0-4.781.002 2.391 2.391 0 0 0 4.781-.002zm-12.172 0a2.391 2.391 0 1 0 4.783 0 2.391 2.391 0 0 0-4.783 0zm440.87-7.391a2.39 2.39 0 1 0-4.78 0 2.39 2.39 0 0 0 4.78 0zm-7.392 0a2.39 2.39 0 1 0-4.781 0 2.392 2.392 0 0 0 4.78 0zm-7.391 0a2.391 2.391 0 1 0-4.783.001 2.391 2.391 0 0 0 4.783-.001zm-7.391 0a2.39 2.39 0 1 0-4.782 0 2.39 2.39 0 1 0 4.782 0zm-7.392 0a2.39 2.39 0 1 0-4.781 0 2.39 2.39 0 0 0 4.78 0zm-7.39 0a2.39 2.39 0 1 0-4.782 0 2.39 2.39 0 1 0 4.783 0zm-7.392 0a2.391 2.391 0 1 0-4.783.001 2.391 2.391 0 0 0 4.783-.001zm-7.39 0a2.391 2.391 0 1 0-4.784.001 2.391 2.391 0 0 0 4.783-.001zm-7.392 0a2.392 2.392 0 1 0-4.784.003 2.392 2.392 0 0 0 4.784-.003zm-7.39 0a2.391 2.391 0 1 0-4.783 0 2.391 2.391 0 0 0 4.782 0zm-7.394 0a2.39 2.39 0 1 0-4.781 0 2.39 2.39 0 0 0 4.781 0zm-7.392 0a2.39 2.39 0 1 0-4.78 0 2.39 2.39 0 0 0 4.78 0zm-7.39 0a2.392 2.392 0 1 0-4.784.003 2.392 2.392 0 0 0 4.785-.003zm-7.392 0a2.39 2.39 0 1 0-4.78 0 2.39 2.39 0 0 0 4.78 0zm-7.39 0a2.39 2.39 0 1 0-4.782 0 2.39 2.39 0 0 0 4.781 0zm-7.391 0a2.392 2.392 0 1 0-4.784.002 2.392 2.392 0 0 0 4.784-.002zm-7.392 0a2.391 2.391 0 1 0-4.783 0 2.391 2.391 0 0 0 4.783 0zm-7.392 0a2.39 2.39 0 1 0-4.78 0 2.39 2.39 0 0 0 4.78 0zm-7.392 0a2.39 2.39 0 1 0-4.78 0 2.39 2.39 0 0 0 4.78 0zm-7.391 0a2.391 2.391 0 1 0-4.782 0 2.391 2.391 0 0 0 4.782 0zm-7.39 0a2.39 2.39 0 1 0-4.782 0 2.39 2.39 0 0 0 4.781 0zm-7.394 0a2.39 2.39 0 1 0-4.78 0 2.39 2.39 0 1 0 4.78 0zm-7.389 0a2.39 2.39 0 1 0-4.784 0 2.39 2.39 0 0 0 4.784 0zm-12.166 0a2.383 2.383 0 1 0 4.768 0 2.385 2.385 0 0 0-4.768 0zm-10.008 0a2.391 2.391 0 1 0-4.783 0 2.391 2.391 0 0 0 4.783 0zm-9.782 2.384a2.384 2.384 0 1 0 0-4.768 2.384 2.384 0 0 0 0 4.768zm-12.392-2.384a2.392 2.392 0 1 0-4.783.002 2.392 2.392 0 0 0 4.783-.002zm-7.39 0a2.392 2.392 0 1 0-4.785.002 2.392 2.392 0 0 0 4.784-.002zm-7.394 0a2.39 2.39 0 1 0-2.389 2.392 2.39 2.39 0 0 0 2.39-2.392zm-7.391 0a2.391 2.391 0 1 0-4.782 0 2.391 2.391 0 0 0 4.782 0zm-7.39 0a2.392 2.392 0 1 0-4.784.002 2.392 2.392 0 0 0 4.783-.002zm-7.392 0a2.391 2.391 0 1 0-4.782 0 2.391 2.391 0 0 0 4.782 0zm-147.826 0a2.391 2.391 0 1 0-4.783.001 2.391 2.391 0 0 0 4.783-.001zm-7.392 0a2.391 2.391 0 1 0-4.781 0 2.391 2.391 0 0 0 4.781 0zm-7.392 0a2.391 2.391 0 1 0-4.782 0 2.391 2.391 0 0 0 4.782 0zm-7.39 0a2.39 2.39 0 1 0-4.782 0 2.39 2.39 0 0 0 4.781 0zm-7.392 0a2.392 2.392 0 1 0-4.783.002 2.392 2.392 0 0 0 4.783-.002zm-7.392 0a2.391 2.391 0 1 0-4.781 0 2.391 2.391 0 0 0 4.781 0zm-7.39 0a2.391 2.391 0 1 0-4.783 0 2.391 2.391 0 0 0 4.782 0zm-12.173 0a2.391 2.391 0 1 0 4.782.001 2.391 2.391 0 0 0-4.782-.001zm-7.392 0a2.392 2.392 0 1 0 4.783 0 2.392 2.392 0 0 0-4.783 0zm482.826-5.9a1.492 1.492 0 1 0 0-2.984 1.492 1.492 0 0 0 0 2.984zm-9.774-1.49a2.383 2.383 0 1 0 4.767 0 2.383 2.383 0 0 0-4.767 0zm-24.791 0a2.39 2.39 0 1 0-4.781 0 2.39 2.39 0 0 0 4.78 0zm-7.393 0a2.39 2.39 0 1 0-2.389 2.39 2.39 2.39 0 0 0 2.39-2.39zm-7.39 0a2.39 2.39 0 1 0-4.78-.002 2.39 2.39 0 0 0 4.78.001zm-7.391 0a2.39 2.39 0 1 0-4.78-.004 2.39 2.39 0 0 0 4.78.003zm-7.391 0a2.391 2.391 0 1 0-4.782-.001 2.391 2.391 0 0 0 4.782 0zm-7.391 0a2.391 2.391 0 1 0-4.783-.001 2.391 2.391 0 0 0 4.783 0zm-7.39 0a2.391 2.391 0 1 0-4.783-.001 2.391 2.391 0 0 0 4.782 0zm-7.394 0a2.39 2.39 0 1 0-4.78-.003 2.39 2.39 0 0 0 4.78.002zm-7.389 0a2.393 2.393 0 0 0-2.394-2.392 2.39 2.39 0 0 0-2.388 2.391 2.392 2.392 0 0 0 4.782 0zm-7.393 0a2.391 2.391 0 1 0-4.782 0 2.391 2.391 0 0 0 4.782 0zm-7.392 0a2.39 2.39 0 1 0-4.78-.003 2.39 2.39 0 0 0 4.78.002zm-7.391 0a2.39 2.39 0 1 0-4.78-.003 2.39 2.39 0 0 0 4.78.002zm-7.39 0a2.391 2.391 0 1 0-4.783 0 2.391 2.391 0 0 0 4.782 0zm-7.392 0a2.39 2.39 0 1 0-4.78-.003 2.39 2.39 0 0 0 4.78.002zm-7.392 0a2.39 2.39 0 1 0-4.78-.004 2.39 2.39 0 0 0 4.78.003zm-7.39 0a2.391 2.391 0 1 0-4.783 0 2.391 2.391 0 0 0 4.783 0zm-7.392 0a2.39 2.39 0 1 0-4.782 0 2.391 2.391 0 0 0 4.782 0zm-7.392 0a2.39 2.39 0 1 0-4.78-.003 2.39 2.39 0 0 0 4.78.002zm-7.393 0a2.39 2.39 0 1 0-4.78 0 2.391 2.391 0 0 0 4.78 0zm-7.389 0a2.391 2.391 0 1 0-4.783 0 2.391 2.391 0 0 0 4.783 0zm-7.393 0a2.39 2.39 0 1 0-4.78 0 2.391 2.391 0 0 0 4.78 0zm-11.528 0a1.748 1.748 0 1 0 3.496-.001 1.748 1.748 0 0 0-3.496 0zm-47.6 0a2.392 2.392 0 1 0-4.784 0 2.392 2.392 0 0 0 4.784 0zm-7.393 0a2.392 2.392 0 0 0-4.782 0 2.392 2.392 0 0 0 4.782 0zm-7.391 0a2.39 2.39 0 1 0-4.781-.002 2.39 2.39 0 0 0 4.781.001zm-7.392 0a2.39 2.39 0 1 0-4.78-.004 2.39 2.39 0 0 0 4.78.003zm-142.825-2.385a2.384 2.384 0 1 0 0 4.77 2.384 2.384 0 0 0 0-4.77zm-5 2.384a2.391 2.391 0 1 0-4.783 0 2.391 2.391 0 0 0 4.782 0zm-7.392 0a2.39 2.39 0 1 0-4.781-.001 2.39 2.39 0 0 0 4.781.001zm-7.391 0a2.39 2.39 0 1 0-4.782-.001 2.39 2.39 0 0 0 4.782.001zm-7.392 0a2.39 2.39 0 1 0-4.781-.001 2.39 2.39 0 0 0 4.781.001zm-7.392 0a2.39 2.39 0 1 0-4.781 0 2.391 2.391 0 0 0 4.781 0zm-7.39 0a2.39 2.39 0 1 0-4.782-.001 2.39 2.39 0 0 0 4.782.001zm-7.392 0a2.39 2.39 0 1 0-4.782 0 2.391 2.391 0 0 0 4.782 0zm-7.39 0a2.391 2.391 0 1 0-4.783 0 2.391 2.391 0 0 0 4.782 0zm-7.391 0a2.391 2.391 0 1 0-4.783 0 2.391 2.391 0 0 0 4.783 0zm-7.393 0a2.391 2.391 0 1 0-4.782 0 2.391 2.391 0 0 0 4.782 0zm-12.172 0a2.39 2.39 0 1 0 4.78 0 2.39 2.39 0 0 0-4.78 0zm500-7.392a2.39 2.39 0 1 0-4.78 0 2.39 2.39 0 0 0 4.78 0zm-29.567 0a2.39 2.39 0 1 0-4.78.001 2.39 2.39 0 0 0 4.78 0zm-14.781 0a2.392 2.392 0 1 0-4.781.003 2.392 2.392 0 0 0 4.78-.003zm-7.393 0a2.39 2.39 0 1 0-4.78 0 2.39 2.39 0 0 0 4.78 0zm-7.39 0a2.39 2.39 0 1 0-4.78 0 2.39 2.39 0 1 0 4.78 0zm-7.391 0a2.39 2.39 0 1 0-4.78 0 2.39 2.39 0 0 0 4.78 0zm-7.391 0a2.39 2.39 0 1 0-4.78.001 2.39 2.39 0 0 0 4.78 0zm-7.393 0a2.39 2.39 0 1 0-4.781 0 2.39 2.39 0 0 0 4.781 0zm-7.389 0a2.391 2.391 0 1 0-4.782.003 2.391 2.391 0 0 0 4.782-.003zm-7.393 0a2.39 2.39 0 1 0-4.783.001 2.39 2.39 0 0 0 4.783 0zm-7.39 0a2.39 2.39 0 1 0-4.782.002 2.39 2.39 0 0 0 4.782-.002zm-7.392 0a2.391 2.391 0 1 0-4.781.002 2.391 2.391 0 0 0 4.781-.002zm-7.392 0a2.391 2.391 0 1 0-4.782.003 2.391 2.391 0 0 0 4.782-.003zm-7.391 0a2.39 2.39 0 1 0-4.78 0 2.39 2.39 0 1 0 4.78 0zm-7.392 0a2.39 2.39 0 0 0-2.39-2.39 2.39 2.39 0 1 0 2.39 2.39zm-7.39 0a2.39 2.39 0 1 0-4.781.002 2.39 2.39 0 0 0 4.781-.002zm-7.392 0a2.39 2.39 0 0 0-2.39-2.39 2.39 2.39 0 1 0 2.39 2.39zm-7.392 0a2.39 2.39 0 1 0-4.78 0 2.391 2.391 0 1 0 4.78 0zm-7.39 0a2.39 2.39 0 1 0-4.78.001 2.39 2.39 0 0 0 4.78 0zm-14.785 0a2.39 2.39 0 1 0-4.78.001 2.39 2.39 0 0 0 4.78 0zm-7.389 0a2.39 2.39 0 1 0-4.781.002 2.39 2.39 0 0 0 4.781-.002zm-7.393 0a2.392 2.392 0 1 0-4.78.004 2.392 2.392 0 0 0 4.78-.004zm-7.39 0a2.39 2.39 0 1 0-4.78.001 2.39 2.39 0 0 0 4.78 0zm-7.391 0a2.39 2.39 0 1 0-4.784 0 2.39 2.39 0 0 0 4.784 0zm-7.391 0a2.391 2.391 0 1 0-4.783.003 2.391 2.391 0 0 0 4.783-.003zm-7.398 0a2.383 2.383 0 1 0-4.768 0 2.385 2.385 0 0 0 4.768 0zm-9.777-.774a.776.776 0 0 0-.775.774.776.776 0 0 0 1.55 0 .774.774 0 0 0-.775-.774zm-41.957.774a2.39 2.39 0 1 0-2.39 2.392 2.39 2.39 0 0 0 2.39-2.392zm-7.39 0a2.391 2.391 0 1 0-4.782.003 2.391 2.391 0 0 0 4.782-.003zm-140.436 0a2.39 2.39 0 1 0-4.782 0 2.39 2.39 0 0 0 4.782 0zm-7.391 0a2.39 2.39 0 1 0-4.78.001 2.39 2.39 0 0 0 4.78 0zm-7.392 0a2.39 2.39 0 1 0-2.39 2.392 2.39 2.39 0 0 0 2.39-2.392zm-7.391 0a2.39 2.39 0 1 0-4.782 0 2.392 2.392 0 0 0 4.782 0zm-7.392 0a2.39 2.39 0 1 0-4.782 0 2.39 2.39 0 0 0 4.782 0zm-7.391 0a2.39 2.39 0 1 0-4.782 0 2.392 2.392 0 0 0 4.782 0zm-7.391 0a2.39 2.39 0 1 0-4.782 0 2.392 2.392 0 0 0 4.782 0zm-7.392 0a2.39 2.39 0 1 0-4.782 0 2.39 2.39 0 0 0 4.782 0zm-7.39 0a2.39 2.39 0 1 0-4.78.001 2.39 2.39 0 0 0 4.78 0zm-7.392 0a2.39 2.39 0 1 0-4.78.001 2.39 2.39 0 0 0 4.78 0zm-7.39 0a2.39 2.39 0 1 0-4.782.001 2.39 2.39 0 0 0 4.781 0zm473.044-7.39a2.391 2.391 0 1 0-4.782-.001 2.391 2.391 0 0 0 4.782 0zm-7.393 0a2.39 2.39 0 0 0-2.388-2.392 2.393 2.393 0 0 0-2.394 2.392c0 1.32 1.073 2.39 2.394 2.39a2.39 2.39 0 0 0 2.388-2.39zm-12.165 0a2.385 2.385 0 1 0 4.77-.003 2.385 2.385 0 0 0-4.77.003zm-2.616 0a2.39 2.39 0 1 0-4.782-.002 2.39 2.39 0 0 0 4.782.002zm-7.393 0a2.39 2.39 0 0 0-2.389-2.392 2.393 2.393 0 0 0-2.393 2.392 2.39 2.39 0 1 0 4.782 0zm-7.39 0a2.39 2.39 0 1 0-4.78 0 2.39 2.39 0 1 0 4.78 0zm-7.391 0a2.391 2.391 0 1 0-4.783 0 2.391 2.391 0 0 0 4.783 0zm-7.391 0a2.392 2.392 0 1 0-4.784 0 2.392 2.392 0 0 0 4.784 0zm-7.393 0a2.39 2.39 0 1 0-4.78 0 2.391 2.391 0 0 0 4.78 0zm-7.39 0a2.391 2.391 0 1 0-4.783 0 2.391 2.391 0 0 0 4.783 0zm-7.392 0a2.392 2.392 0 1 0-4.783 0 2.392 2.392 0 0 0 4.783 0zm-7.39 0a2.391 2.391 0 1 0-4.783 0 2.391 2.391 0 0 0 4.783 0zm-7.393 0a2.39 2.39 0 1 0-4.781-.002 2.39 2.39 0 0 0 4.78.002zm-7.39 0a2.391 2.391 0 1 0-4.784 0 2.391 2.391 0 0 0 4.783 0zm-7.392 0a2.39 2.39 0 1 0-4.78-.002 2.39 2.39 0 0 0 4.78.002zm-7.392 0a2.39 2.39 0 1 0-4.78 0 2.39 2.39 0 1 0 4.78 0zm-7.39 0a2.392 2.392 0 1 0-4.784 0 2.392 2.392 0 0 0 4.784 0zm-7.392 0a2.39 2.39 0 1 0-4.782 0 2.392 2.392 0 0 0 4.782 0zm-7.392 0a2.39 2.39 0 1 0-4.78 0 2.39 2.39 0 0 0 4.78 0zm-7.391 0a2.39 2.39 0 1 0-4.781 0 2.39 2.39 0 1 0 4.78 0zm-14.784 0a2.39 2.39 0 0 0-2.388-2.392 2.393 2.393 0 0 0-2.394 2.392c0 1.32 1.072 2.39 2.394 2.39a2.39 2.39 0 0 0 2.388-2.39zm-7.39 0a2.39 2.39 0 1 0-4.78-.003 2.39 2.39 0 0 0 4.78.003zm-19.557 0a2.383 2.383 0 1 0 4.766 0 2.383 2.383 0 0 0-4.766 0zm-2.618 0a2.39 2.39 0 1 0-4.78 0 2.391 2.391 0 0 0 4.78 0zm-7.398 0a2.384 2.384 0 1 0-4.768-.002 2.384 2.384 0 0 0 4.768.002zm-9.774-2.385a2.383 2.383 0 0 0-2.383 2.385 2.385 2.385 0 1 0 2.383-2.385zm-5 2.385a2.391 2.391 0 1 0-4.783 0 2.391 2.391 0 0 0 4.783 0zm-17.174 1.227a1.227 1.227 0 1 0 0-2.454 1.227 1.227 0 0 0 0 2.454zm-19.783-1.227a2.392 2.392 0 1 0-4.784 0 2.392 2.392 0 0 0 4.784 0zm-7.392 0a2.39 2.39 0 1 0-4.782 0 2.392 2.392 0 0 0 4.782 0zm-7.391 0a2.39 2.39 0 1 0-4.782-.002 2.39 2.39 0 0 0 4.782.002zm-125.652 0a2.391 2.391 0 1 0-4.782-.001 2.391 2.391 0 0 0 4.782 0zm-7.392 0a2.39 2.39 0 1 0-4.781-.002 2.39 2.39 0 0 0 4.78.002zm-7.391 0a2.391 2.391 0 1 0-4.783-.001 2.391 2.391 0 0 0 4.783 0zm-7.391 0a2.391 2.391 0 1 0-4.783 0 2.391 2.391 0 0 0 4.783 0zm-7.393 0a2.39 2.39 0 1 0-4.781 0 2.392 2.392 0 0 0 4.781 0zm-7.39 0a2.39 2.39 0 1 0-4.782-.002 2.39 2.39 0 0 0 4.782.002zm-7.392 0a2.39 2.39 0 1 0-4.782 0 2.392 2.392 0 0 0 4.782 0zm-7.391 0a2.391 2.391 0 1 0-4.782-.001 2.391 2.391 0 0 0 4.782 0zm-7.392 0a2.39 2.39 0 1 0-4.78 0 2.391 2.391 0 0 0 4.78 0zm-7.39 0a2.391 2.391 0 1 0-4.783-.001 2.391 2.391 0 0 0 4.782 0zm-7.391 0a2.391 2.391 0 1 0-4.783 0 2.391 2.391 0 0 0 4.783 0zm-7.392 0a2.391 2.391 0 1 0-4.783-.001 2.391 2.391 0 0 0 4.783 0zm-7.392 0a2.391 2.391 0 1 0-4.782-.001 2.391 2.391 0 0 0 4.782 0zm-12.172 0a2.391 2.391 0 1 0 4.781 0 2.391 2.391 0 0 0-4.781 0zm492.609-7.391a2.39 2.39 0 1 0-4.781-.003 2.39 2.39 0 0 0 4.78.003zm-7.39 0a2.391 2.391 0 1 0-4.784 0 2.391 2.391 0 0 0 4.783 0zm-7.394 0a2.39 2.39 0 1 0-4.781-.002 2.39 2.39 0 0 0 4.781.002zm-7.39 0a2.39 2.39 0 1 0-4.782 0 2.391 2.391 0 0 0 4.782 0zm-7.393 0a2.39 2.39 0 1 0-4.78 0 2.39 2.39 0 0 0 4.78 0zm-7.39 0a2.391 2.391 0 1 0-4.782-.002 2.391 2.391 0 0 0 4.781.002zm-7.391 0a2.39 2.39 0 1 0-4.782 0 2.39 2.39 0 0 0 4.782 0zm-7.393 0a2.39 2.39 0 1 0-4.78-.004 2.39 2.39 0 0 0 4.78.004zm-7.389 0a2.392 2.392 0 0 0-4.782 0 2.392 2.392 0 0 0 4.782 0zm-7.393 0a2.39 2.39 0 1 0-4.782 0 2.392 2.392 0 0 0 4.782 0zm-7.39 0a2.391 2.391 0 1 0-4.783 0 2.391 2.391 0 0 0 4.783 0zm-7.392 0a2.392 2.392 0 1 0-4.783 0 2.392 2.392 0 0 0 4.783 0zm-7.39 0a2.392 2.392 0 0 0-4.783 0 2.39 2.39 0 0 0 4.783 0zm-7.393 0a2.39 2.39 0 1 0-4.781-.003 2.39 2.39 0 0 0 4.78.003zm-7.392 0a2.39 2.39 0 1 0-4.78-.003 2.39 2.39 0 0 0 4.78.003zm-7.39 0a2.392 2.392 0 1 0-4.783 0 2.392 2.392 0 0 0 4.783 0zm-7.392 0a2.39 2.39 0 1 0-4.78-.003 2.39 2.39 0 0 0 4.78.003zm-7.392 0a2.39 2.39 0 1 0-4.78-.003 2.39 2.39 0 0 0 4.78.003zm-7.39 0a2.391 2.391 0 1 0-4.782-.001 2.391 2.391 0 0 0 4.782 0zm-12.168 0a2.385 2.385 0 1 0 4.77-.002 2.385 2.385 0 0 0-4.77.002zm-2.615 0a2.39 2.39 0 1 0-4.78-.004 2.39 2.39 0 0 0 4.78.004zm-12.156 0a2.373 2.373 0 1 0 4.747 0 2.374 2.374 0 0 0-4.747 0zm-10.018 0a2.39 2.39 0 1 0-4.78-.003 2.39 2.39 0 0 0 4.78.003zm-7.393 0a2.39 2.39 0 1 0-4.78 0 2.39 2.39 0 0 0 4.78 0zm-24.563-2.385a2.384 2.384 0 1 0 0 4.769 2.384 2.384 0 0 0 0-4.769zm-5 2.385a2.392 2.392 0 0 0-4.782 0 2.392 2.392 0 0 0 4.782 0zm-7.391 0a2.391 2.391 0 1 0-4.783-.001 2.391 2.391 0 0 0 4.783 0zm-7.392 0a2.391 2.391 0 1 0-4.783-.001 2.391 2.391 0 0 0 4.783 0zm-14.782 0a2.39 2.39 0 1 0-4.782-.002 2.39 2.39 0 0 0 4.782.002zm-7.393 0a2.39 2.39 0 1 0-4.78-.004 2.39 2.39 0 0 0 4.78.004zm-7.391 0a2.39 2.39 0 1 0-4.782-.002 2.39 2.39 0 0 0 4.782.002zm-125.652 0a2.391 2.391 0 1 0-4.782-.001 2.391 2.391 0 0 0 4.782 0zm-7.391 0a2.39 2.39 0 1 0-4.782-.002 2.39 2.39 0 0 0 4.782.002zm-7.392 0a2.391 2.391 0 1 0-4.782-.001 2.391 2.391 0 0 0 4.782 0zm-7.391 0a2.391 2.391 0 1 0-4.783-.001 2.391 2.391 0 0 0 4.783 0zm-14.783 0a2.391 2.391 0 1 0-4.782-.001 2.391 2.391 0 0 0 4.782 0zm-7.392 0a2.39 2.39 0 1 0-4.78-.003 2.39 2.39 0 0 0 4.78.003zm-7.391 0a2.39 2.39 0 1 0-4.781-.002 2.39 2.39 0 0 0 4.78.002zm-7.391 0a2.39 2.39 0 1 0-4.782-.002 2.39 2.39 0 0 0 4.782.002zm-7.391 0a2.391 2.391 0 1 0-4.783-.001 2.391 2.391 0 0 0 4.783 0zm-7.392 0a2.39 2.39 0 1 0-4.781-.002 2.39 2.39 0 0 0 4.78.002zm-7.39 0a2.391 2.391 0 1 0-4.783-.001 2.391 2.391 0 0 0 4.782 0zm-7.392 0a2.391 2.391 0 1 0-4.782-.001 2.391 2.391 0 0 0 4.782 0zm-7.392 0a2.391 2.391 0 1 0-4.782-.002 2.391 2.391 0 0 0 4.782.002zm-7.39 0a2.391 2.391 0 1 0-4.783-.001 2.391 2.391 0 0 0 4.782 0zm-7.393 0a2.391 2.391 0 1 0-4.782-.002 2.391 2.391 0 0 0 4.782.002zm495.22-7.393a2.39 2.39 0 1 0-4.781.002 2.39 2.39 0 0 0 4.781-.002zm-7.391 0a2.392 2.392 0 1 0-2.39 2.392c1.32 0 2.39-1.07 2.39-2.392zm-7.392 0a2.39 2.39 0 0 0-2.391-2.39 2.39 2.39 0 1 0 2.39 2.39zm-7.392 0a2.39 2.39 0 1 0-4.784 0 2.39 2.39 0 0 0 4.784 0zm-7.39 0a2.392 2.392 0 1 0-2.39 2.392 2.39 2.39 0 0 0 2.39-2.392zm-7.393 0a2.39 2.39 0 1 0-4.781 0 2.39 2.39 0 0 0 4.781 0zm-7.392 0a2.39 2.39 0 1 0-4.78.001 2.39 2.39 0 0 0 4.78 0zm-7.39 0a2.39 2.39 0 1 0-4.78.002 2.39 2.39 0 0 0 4.78-.002zm-7.392 0a2.39 2.39 0 1 0-4.781 0 2.39 2.39 0 0 0 4.781 0zm-7.39 0a2.39 2.39 0 1 0-4.781.001 2.39 2.39 0 0 0 4.78 0zm-7.392 0a2.39 2.39 0 1 0-4.78.001 2.39 2.39 0 0 0 4.78 0zm-7.39 0a2.39 2.39 0 1 0-4.782.002 2.39 2.39 0 0 0 4.782-.002zm-7.393 0a2.39 2.39 0 1 0-4.781 0 2.39 2.39 0 1 0 4.78 0zm-7.39 0a2.392 2.392 0 1 0-4.783.004 2.392 2.392 0 0 0 4.784-.004zm-7.392 0a2.39 2.39 0 1 0-4.781.002 2.39 2.39 0 0 0 4.78-.002zm-7.392 0a2.39 2.39 0 0 0-2.39-2.39 2.39 2.39 0 1 0 2.39 2.39zm-7.39 0a2.391 2.391 0 1 0-4.782.002 2.391 2.391 0 0 0 4.782-.002zm-7.392 0a2.39 2.39 0 1 0-4.78.001 2.39 2.39 0 0 0 4.78 0zm-7.392 0a2.391 2.391 0 1 0-4.783.002 2.391 2.391 0 0 0 4.783-.002zm-7.391 0a2.39 2.39 0 0 0-2.39-2.39 2.39 2.39 0 1 0 2.39 2.39zm-7.391 0a2.39 2.39 0 1 0-4.781.002 2.39 2.39 0 0 0 4.781-.002zm-7.391 0a2.392 2.392 0 1 0-2.39 2.392 2.39 2.39 0 0 0 2.39-2.392zm-7.392 0a2.39 2.39 0 1 0-4.781 0 2.391 2.391 0 1 0 4.78 0zm-7.392 0a2.39 2.39 0 1 0-4.783.001 2.39 2.39 0 0 0 4.783 0zm-7.39 0a2.391 2.391 0 1 0-4.782.003 2.391 2.391 0 0 0 4.782-.003zm-7.393 0a2.39 2.39 0 1 0-4.781 0 2.39 2.39 0 0 0 4.78 0zm-7.39 0a2.39 2.39 0 1 0-4.781.001 2.39 2.39 0 0 0 4.78 0zm-7.392 0a2.391 2.391 0 1 0-4.782.002 2.391 2.391 0 0 0 4.782-.002zm-7.39 0a2.39 2.39 0 1 0-4.781.001 2.39 2.39 0 0 0 4.78 0zm-7.393 0a2.39 2.39 0 1 0-4.78.001 2.39 2.39 0 0 0 4.78 0zm-7.39 0a2.392 2.392 0 1 0-4.783.004 2.392 2.392 0 0 0 4.784-.004zm-7.391 0a2.39 2.39 0 1 0-4.781.001 2.39 2.39 0 0 0 4.78 0zm-7.393 0a2.39 2.39 0 0 0-2.39-2.39 2.39 2.39 0 1 0 2.39 2.39zm-7.39 0a2.391 2.391 0 1 0-4.782.003 2.391 2.391 0 0 0 4.783-.003zm-7.392 0a2.391 2.391 0 1 0-4.782.002 2.391 2.391 0 0 0 4.782-.002zm-7.391 0a2.39 2.39 0 1 0-4.781 0 2.391 2.391 0 1 0 4.78 0zm-12.167 0a2.384 2.384 0 1 0 4.768.001 2.384 2.384 0 0 0-4.768 0zm-93.703 1.749a1.747 1.747 0 1 0 .001-3.495 1.747 1.747 0 0 0 0 3.495zm-7.391.635a2.383 2.383 0 1 0 .001-4.766 2.383 2.383 0 0 0-.001 4.766zm-16.53-2.384a1.748 1.748 0 1 0 3.495.001 1.748 1.748 0 0 0-3.496 0zm-3.252 0a2.39 2.39 0 1 0-4.781.001 2.39 2.39 0 0 0 4.78 0zm-7.393 0a2.39 2.39 0 1 0-4.781 0 2.391 2.391 0 1 0 4.781 0zm-7.39 0a2.39 2.39 0 1 0-4.781.001 2.39 2.39 0 0 0 4.78 0zm-7.392 0a2.39 2.39 0 1 0-4.782 0 2.391 2.391 0 1 0 4.782 0zm-7.391 0a2.39 2.39 0 1 0-4.782 0 2.391 2.391 0 1 0 4.782 0zm-14.783 0a2.39 2.39 0 1 0-4.782 0 2.391 2.391 0 1 0 4.782 0zm-7.392 0a2.39 2.39 0 1 0-4.782 0 2.39 2.39 0 0 0 4.782 0zm-7.39 0a2.39 2.39 0 1 0-4.782.001 2.39 2.39 0 0 0 4.781 0zm-7.392 0a2.39 2.39 0 1 0-4.782 0 2.391 2.391 0 1 0 4.782 0zm-7.391 0a2.39 2.39 0 1 0-4.781.001 2.39 2.39 0 0 0 4.78 0zm-7.391 0a2.39 2.39 0 1 0-4.78.001 2.39 2.39 0 0 0 4.78 0zm-7.393 0a2.39 2.39 0 1 0-4.782 0 2.39 2.39 0 0 0 4.782 0zm-7.39 0a2.39 2.39 0 1 0-4.781.001 2.39 2.39 0 0 0 4.78 0zm-7.392 0a2.39 2.39 0 1 0-4.78.001 2.39 2.39 0 0 0 4.78 0zm527.773-7.39a2.012 2.012 0 1 0 4.024 0 2.012 2.012 0 0 0-4.024 0zm-32.554 0a2.39 2.39 0 1 0-4.781 0 2.39 2.39 0 1 0 4.78 0zm-7.39 0a2.392 2.392 0 1 0-4.784.001 2.392 2.392 0 0 0 4.784-.002zm-7.392 0a2.39 2.39 0 1 0-4.783 0 2.391 2.391 0 1 0 4.783 0zm-7.393 0a2.39 2.39 0 1 0-4.78 0 2.391 2.391 0 1 0 4.78 0zm-7.39 0a2.391 2.391 0 1 0-4.782 0 2.391 2.391 0 0 0 4.783 0zm-7.392 0a2.39 2.39 0 1 0-4.78-.002 2.39 2.39 0 0 0 4.78.001zm-7.392 0a2.39 2.39 0 1 0-4.78 0 2.391 2.391 0 1 0 4.78 0zm-7.39 0a2.39 2.39 0 1 0-4.781 0 2.39 2.39 0 1 0 4.78 0zm-7.392 0a2.39 2.39 0 1 0-4.782 0 2.39 2.39 0 0 0 4.782 0zm-7.39 0a2.391 2.391 0 1 0-4.782 0 2.391 2.391 0 0 0 4.782 0zm-7.393 0a2.39 2.39 0 1 0-4.781 0 2.39 2.39 0 1 0 4.78 0zm-7.39 0c0-1.321-1.072-2.392-2.393-2.392a2.39 2.39 0 0 0-2.389 2.391 2.39 2.39 0 0 0 2.389 2.392 2.393 2.393 0 0 0 2.394-2.392zm-7.392 0a2.39 2.39 0 1 0-4.783 0 2.391 2.391 0 1 0 4.783 0zm-7.39 0a2.391 2.391 0 1 0-4.783 0 2.391 2.391 0 0 0 4.782 0zm-7.392 0a2.392 2.392 0 1 0-4.783 0 2.392 2.392 0 0 0 4.783 0zm-7.392 0a2.39 2.39 0 1 0-4.782 0 2.391 2.391 0 1 0 4.782 0zm-7.391 0a2.39 2.39 0 1 0-4.781-.002 2.39 2.39 0 0 0 4.78.001zm-7.393 0a2.39 2.39 0 1 0-4.78 0 2.39 2.39 0 1 0 4.78 0zm-7.39 0a2.391 2.391 0 1 0-4.783 0 2.391 2.391 0 0 0 4.783 0zm-7.391 0a2.39 2.39 0 1 0-4.781 0 2.39 2.39 0 1 0 4.78 0zm-7.392 0a2.39 2.39 0 1 0-4.781 0 2.39 2.39 0 1 0 4.78 0zm-7.39 0a2.392 2.392 0 1 0-4.784.002 2.392 2.392 0 0 0 4.784-.003zm-7.392 0a2.39 2.39 0 1 0-4.783 0 2.392 2.392 0 0 0 4.783 0zm-7.393 0a2.391 2.391 0 1 0-4.78.001 2.391 2.391 0 0 0 4.78-.002zm-7.39 0a2.391 2.391 0 1 0-4.782 0 2.391 2.391 0 0 0 4.783 0zm-7.392 0a2.39 2.39 0 1 0-4.78-.002 2.39 2.39 0 0 0 4.78.001zm-7.39 0a2.391 2.391 0 1 0-4.783 0 2.391 2.391 0 0 0 4.782 0zm-7.393 0a2.39 2.39 0 1 0-4.781 0 2.391 2.391 0 1 0 4.78 0zm-7.39 0a2.392 2.392 0 0 0-4.782 0 2.39 2.39 0 1 0 4.782 0zm-7.392 0a2.391 2.391 0 1 0-4.782 0 2.391 2.391 0 0 0 4.782 0zm-7.39 0a2.391 2.391 0 1 0-4.783 0 2.391 2.391 0 0 0 4.782 0zm-7.391 0a2.392 2.392 0 1 0-4.785.002 2.392 2.392 0 0 0 4.785-.003zm-7.393 0a2.391 2.391 0 1 0-4.782.001 2.391 2.391 0 0 0 4.782-.002zm-7.39 0a2.39 2.39 0 1 0-4.782-.001 2.39 2.39 0 0 0 4.781 0zm-7.392 0a2.391 2.391 0 1 0-4.782 0 2.391 2.391 0 0 0 4.782 0zm-14.784 0a2.39 2.39 0 1 0-4.78 0 2.39 2.39 0 1 0 4.78 0zm-110.869 0a2.391 2.391 0 1 0-4.781 0 2.391 2.391 0 0 0 4.781 0zm-7.39 0a2.391 2.391 0 1 0-4.783 0 2.391 2.391 0 0 0 4.782 0zm-7.392 0a2.391 2.391 0 1 0-4.782 0 2.391 2.391 0 0 0 4.782 0zm-7.392 0a2.391 2.391 0 1 0-4.781 0 2.391 2.391 0 0 0 4.781 0zm-7.392 0a2.39 2.39 0 1 0-4.78-.001 2.39 2.39 0 0 0 4.78 0zm-7.39 0a2.39 2.39 0 1 0-4.782 0 2.391 2.391 0 1 0 4.781 0zm-7.391 0a2.391 2.391 0 1 0-4.783 0 2.391 2.391 0 0 0 4.783 0zm-7.393 0a2.39 2.39 0 1 0-4.781 0 2.39 2.39 0 1 0 4.781 0zm-7.39 0a2.391 2.391 0 1 0-4.783 0 2.391 2.391 0 0 0 4.782 0zm-7.392 0a2.39 2.39 0 1 0-4.781-.001 2.39 2.39 0 0 0 4.78 0zm-7.392 0a2.39 2.39 0 1 0-4.78-.001 2.39 2.39 0 0 0 4.78 0zm-7.39 0a2.391 2.391 0 1 0-4.782 0 2.391 2.391 0 0 0 4.782 0zm-7.392 0a2.39 2.39 0 1 0-4.78-.002 2.39 2.39 0 0 0 4.78.001zm-7.39 0a2.391 2.391 0 1 0-4.783 0 2.391 2.391 0 0 0 4.782 0zm-7.393 0a2.391 2.391 0 1 0-4.782 0 2.391 2.391 0 0 0 4.782 0zm-7.391 0a2.39 2.39 0 1 0-4.781-.001 2.39 2.39 0 0 0 4.78 0zm-7.391 0a2.39 2.39 0 1 0-4.781-.002 2.39 2.39 0 0 0 4.78.001zm527.394-7.392a2.39 2.39 0 1 0 4.782 0 2.39 2.39 0 1 0-4.782 0zm-32.175 0a2.39 2.39 0 1 0-4.781 0 2.39 2.39 0 0 0 4.78 0zm-7.393 0a2.39 2.39 0 1 0-2.39 2.39 2.39 2.39 0 0 0 2.39-2.39zm-7.39 0a2.392 2.392 0 1 0-4.783.002 2.392 2.392 0 0 0 4.784-.002zm-7.392 0a2.39 2.39 0 0 0-2.39-2.391 2.393 2.393 0 0 0-2.392 2.39 2.392 2.392 0 0 0 4.782 0zm-7.39 0a2.39 2.39 0 1 0-4.782 0 2.39 2.39 0 0 0 4.781 0zm-7.392 0a2.391 2.391 0 1 0-4.782 0 2.391 2.391 0 0 0 4.782 0zm-7.392 0a2.39 2.39 0 1 0-4.782 0 2.39 2.39 0 1 0 4.782 0zm-7.39 0a2.39 2.39 0 1 0-4.782 0 2.39 2.39 0 0 0 4.781 0zm-7.393 0a2.39 2.39 0 1 0-4.781-.001 2.39 2.39 0 0 0 4.78 0zm-7.39 0a2.39 2.39 0 1 0-4.783 0 2.39 2.39 0 0 0 4.784 0zm-7.392 0a2.39 2.39 0 1 0-4.78-.001 2.39 2.39 0 0 0 4.78 0zm-7.39 0a2.39 2.39 0 1 0-4.782-.002 2.39 2.39 0 0 0 4.781.002zm-7.392 0a2.392 2.392 0 0 0-4.783 0 2.391 2.391 0 0 0 4.783 0zm-7.39 0a2.392 2.392 0 1 0-4.784.002 2.392 2.392 0 0 0 4.783-.002zm-7.394 0a2.39 2.39 0 1 0-4.781 0 2.39 2.39 0 0 0 4.781 0zm-7.39 0a2.392 2.392 0 1 0-4.784.002 2.392 2.392 0 0 0 4.784-.002zm-7.391 0a2.39 2.39 0 1 0-4.782 0 2.39 2.39 0 0 0 4.782 0zm-7.393 0a2.39 2.39 0 1 0-4.78-.001 2.39 2.39 0 0 0 4.78 0zm-7.392 0a2.39 2.39 0 1 0-4.78 0 2.39 2.39 0 0 0 4.78 0zm-7.39 0a2.392 2.392 0 0 0-4.782 0 2.391 2.391 0 0 0 4.783 0zm-7.391 0a2.39 2.39 0 1 0-4.781 0 2.39 2.39 0 0 0 4.78 0zm-7.393 0a2.39 2.39 0 1 0-4.78-.002 2.39 2.39 0 0 0 4.78.002zm-7.39 0a2.392 2.392 0 1 0-4.783.002 2.392 2.392 0 0 0 4.784-.002zm-7.392 0a2.39 2.39 0 0 0-2.389-2.391 2.393 2.393 0 0 0-2.393 2.39c0 1.321 1.072 2.392 2.393 2.392 1.32 0 2.389-1.07 2.389-2.391zm-7.39 0a2.39 2.39 0 1 0-4.782 0 2.39 2.39 0 0 0 4.781 0zm-7.392 0a2.391 2.391 0 1 0-4.782 0 2.391 2.391 0 0 0 4.782 0zm-7.39 0a2.391 2.391 0 1 0-4.784.001 2.391 2.391 0 0 0 4.783-.001zm-7.393 0a2.39 2.39 0 1 0-4.78-.002 2.39 2.39 0 0 0 4.78.002zm-7.391 0a2.392 2.392 0 1 0-4.783.001 2.392 2.392 0 0 0 4.783-.001zm-7.39 0a2.39 2.39 0 1 0-4.783 0 2.39 2.39 0 0 0 4.782 0zm-7.392 0a2.392 2.392 0 1 0-4.783.001 2.392 2.392 0 0 0 4.783-.001zm-7.392 0a2.391 2.391 0 1 0-4.783.001 2.391 2.391 0 0 0 4.783-.001zm-7.391 0a2.392 2.392 0 1 0-4.783.001 2.392 2.392 0 0 0 4.783-.001zm-7.39 0a2.391 2.391 0 1 0-4.783 0 2.391 2.391 0 0 0 4.782 0zm-22.3 0a2.265 2.265 0 1 0-4.531 0 2.265 2.265 0 0 0 4.53 0zm-7.267 0a2.391 2.391 0 1 0-4.782 0 2.391 2.391 0 0 0 4.782 0zm-105.87 2.385a2.385 2.385 0 1 0 0-4.77 2.385 2.385 0 0 0 0 4.77zm-5-2.385a2.39 2.39 0 1 0-4.781 0 2.39 2.39 0 0 0 4.781 0zm-7.39 0a2.392 2.392 0 1 0-4.783.001 2.392 2.392 0 0 0 4.783-.001zm-7.393 0a2.39 2.39 0 1 0-4.782 0 2.39 2.39 0 0 0 4.782 0zm-7.39 0a2.392 2.392 0 1 0-4.784.001 2.392 2.392 0 0 0 4.783-.001zm-14.783 0a2.391 2.391 0 1 0-4.782 0 2.391 2.391 0 0 0 4.782 0zm-7.392 0a2.391 2.391 0 1 0-4.782 0 2.391 2.391 0 0 0 4.782 0zm-7.39 0a2.392 2.392 0 1 0-4.784.001 2.392 2.392 0 0 0 4.783-.001zm-7.393 0a2.39 2.39 0 1 0-4.782 0 2.39 2.39 0 0 0 4.782 0zm-7.39 0a2.391 2.391 0 1 0-4.783.001 2.391 2.391 0 0 0 4.782-.001zm-7.392 0a2.391 2.391 0 1 0-4.783.001 2.391 2.391 0 0 0 4.783-.001zm-7.391 0a2.391 2.391 0 1 0-4.783.001 2.391 2.391 0 0 0 4.783-.001zm-7.391 0a2.391 2.391 0 1 0-4.782 0 2.391 2.391 0 0 0 4.782 0zm-7.393 0a2.39 2.39 0 1 0-4.781 0 2.39 2.39 0 0 0 4.781 0zm-7.39 0a2.392 2.392 0 1 0-4.783.001 2.392 2.392 0 0 0 4.783-.001zm-7.391 0a2.391 2.391 0 1 0-4.782 0 2.391 2.391 0 0 0 4.782 0zm-12.173 0a2.39 2.39 0 1 0 4.78 0 2.39 2.39 0 0 0-4.78 0zm546.958-7.391a2.39 2.39 0 1 0 4.78 0 2.39 2.39 0 0 0-4.78 0zm-2.61 0a2.39 2.39 0 1 0-4.782 0 2.39 2.39 0 0 0 4.781 0zm-36.956 0a2.391 2.391 0 1 0-4.783 0 2.391 2.391 0 0 0 4.783 0zm-7.393 0a2.39 2.39 0 1 0-4.781 0 2.391 2.391 0 0 0 4.78 0zm-7.39 0a2.39 2.39 0 1 0-4.78-.002 2.39 2.39 0 0 0 4.78.002zm-7.392 0a2.39 2.39 0 1 0-4.781 0 2.39 2.39 0 0 0 4.78 0zm-7.39 0a2.392 2.392 0 0 0-4.784 0 2.392 2.392 0 0 0 4.783 0zm-7.393 0a2.39 2.39 0 1 0-4.78-.002 2.39 2.39 0 0 0 4.78.002zm-7.391 0a2.39 2.39 0 1 0-4.782 0 2.39 2.39 0 0 0 4.782 0zm-7.39 0a2.39 2.39 0 1 0-4.783 0 2.39 2.39 0 0 0 4.782 0zm-7.393 0a2.39 2.39 0 1 0-4.78-.002 2.39 2.39 0 0 0 4.78.002zm-7.391 0a2.391 2.391 0 1 0-4.782 0 2.391 2.391 0 0 0 4.782 0zm-7.391 0a2.39 2.39 0 1 0-4.782 0 2.39 2.39 0 0 0 4.782 0zm-7.39 0a2.391 2.391 0 1 0-4.783 0 2.391 2.391 0 0 0 4.782 0zm-7.394 0a2.39 2.39 0 1 0-4.78-.001 2.39 2.39 0 0 0 4.78 0zm-7.389 0c0-1.321-1.072-2.391-2.394-2.391a2.389 2.389 0 0 0-2.388 2.39c0 1.321 1.068 2.391 2.388 2.391a2.393 2.393 0 0 0 2.394-2.39zm-7.393 0a2.39 2.39 0 1 0-4.78-.001 2.39 2.39 0 0 0 4.78 0zm-7.392 0a2.39 2.39 0 1 0-4.78-.002 2.39 2.39 0 0 0 4.78.002zm-7.39 0a2.392 2.392 0 1 0-4.783.002 2.392 2.392 0 0 0 4.784-.002zm-7.392 0a2.391 2.391 0 1 0-4.782.001 2.391 2.391 0 0 0 4.782-.001zm-7.392 0a2.39 2.39 0 1 0-4.78-.002 2.39 2.39 0 0 0 4.78.002zm-7.39 0a2.392 2.392 0 0 0-4.782 0 2.39 2.39 0 1 0 4.783 0zm-7.391 0a2.391 2.391 0 1 0-4.783 0 2.391 2.391 0 0 0 4.783 0zm-7.393 0a2.39 2.39 0 1 0-4.781 0 2.391 2.391 0 0 0 4.78 0zm-7.39 0a2.39 2.39 0 1 0-4.78-.002 2.39 2.39 0 0 0 4.78.002zm-7.392 0a2.39 2.39 0 1 0-4.78-.001 2.39 2.39 0 0 0 4.78 0zm-7.39 0a2.39 2.39 0 1 0-4.783 0 2.391 2.391 0 0 0 4.782 0zm-14.783 0a2.392 2.392 0 0 0-4.782 0 2.392 2.392 0 0 0 4.782 0zm-7.392 0a2.39 2.39 0 1 0-4.781-.001 2.39 2.39 0 0 0 4.78 0zm-7.391 0a2.391 2.391 0 1 0-4.782 0 2.391 2.391 0 0 0 4.782 0zm-7.392 0a2.391 2.391 0 1 0-4.782 0 2.391 2.391 0 0 0 4.782 0zm-19.558 0a2.385 2.385 0 0 0 4.77 0 2.385 2.385 0 0 0-4.77 0zm-10.006 0a2.392 2.392 0 1 0-4.784.002 2.392 2.392 0 0 0 4.784-.002zm-23.19 0a1.376 1.376 0 1 0-2.751-.002 1.376 1.376 0 0 0 2.751.002zm-117.246 0a2.391 2.391 0 1 0-4.782 0 2.391 2.391 0 0 0 4.782 0zm-7.391 0a2.391 2.391 0 1 0-4.782 0 2.391 2.391 0 0 0 4.782 0zm-7.392 0a2.39 2.39 0 1 0-4.781-.001 2.39 2.39 0 0 0 4.781 0zm-29.566 0a2.39 2.39 0 1 0-4.782 0 2.391 2.391 0 0 0 4.782 0zm-7.39 0a2.391 2.391 0 1 0-4.783 0 2.391 2.391 0 0 0 4.782 0zm-7.392 0a2.39 2.39 0 1 0-4.78-.001 2.39 2.39 0 0 0 4.78 0zm-7.391 0a2.391 2.391 0 1 0-4.782 0 2.391 2.391 0 0 0 4.782 0zm-7.39 0a2.391 2.391 0 1 0-4.783 0 2.391 2.391 0 0 0 4.782 0zm-7.393 0a2.39 2.39 0 1 0-4.781 0 2.39 2.39 0 0 0 4.781 0zm-7.39 0a2.391 2.391 0 1 0-4.783 0 2.391 2.391 0 0 0 4.783 0zm-7.393 0a2.391 2.391 0 1 0-4.781 0 2.391 2.391 0 0 0 4.781 0zm-7.39 0a2.391 2.391 0 1 0-4.783 0 2.391 2.391 0 0 0 4.782 0zm-7.392 0a2.39 2.39 0 1 0-4.781-.001 2.39 2.39 0 0 0 4.78 0zm-7.391 0a2.39 2.39 0 1 0-4.781-.001 2.39 2.39 0 0 0 4.78 0zm-12.174 0a2.391 2.391 0 1 0 4.782-.001 2.391 2.391 0 0 0-4.782 0zm-6.867 0a1.867 1.867 0 1 0 3.733 0 1.867 1.867 0 0 0-3.733 0zm-43.857 0a1.376 1.376 0 1 0 2.751 0 1.376 1.376 0 0 0-2.75 0zm607.463-5.008a2.383 2.383 0 1 0 .003-4.767 2.383 2.383 0 0 0-.003 4.767zm-12.39-2.384a2.39 2.39 0 1 0-4.78 0 2.39 2.39 0 1 0 4.78 0zm-22.174 0a2.39 2.39 0 1 0-4.781 0 2.39 2.39 0 0 0 4.781 0zm-7.392 0a2.39 2.39 0 1 0-4.78 0 2.39 2.39 0 0 0 4.78 0zm-7.391 0a2.39 2.39 0 1 0-4.782 0 2.39 2.39 0 0 0 4.782 0zm-7.39 0a2.39 2.39 0 1 0-4.782 0 2.39 2.39 0 0 0 4.781 0zm-7.394 0a2.39 2.39 0 1 0-4.78 0 2.39 2.39 0 0 0 4.78 0zm-7.389 0a2.393 2.393 0 0 0-4.783 0 2.393 2.393 0 0 0 2.391 2.392 2.393 2.393 0 0 0 2.392-2.392zm-7.392 0a2.39 2.39 0 1 0-4.78 0 2.39 2.39 0 0 0 4.78 0zm-7.393 0a2.39 2.39 0 1 0-2.388 2.392 2.39 2.39 0 0 0 2.388-2.392zm-7.389 0a2.392 2.392 0 1 0-4.783.002 2.392 2.392 0 0 0 4.783-.002zm-7.392 0a2.39 2.39 0 1 0-4.781 0 2.39 2.39 0 0 0 4.78 0zm-7.391 0a2.391 2.391 0 1 0-4.783.002 2.391 2.391 0 0 0 4.783-.002zm-7.391 0a2.392 2.392 0 1 0-4.783.002 2.392 2.392 0 0 0 4.783-.002zm-7.39 0a2.391 2.391 0 1 0-4.782.001 2.391 2.391 0 0 0 4.781 0zm-7.394 0a2.39 2.39 0 1 0-4.781 0 2.39 2.39 0 0 0 4.781 0zm-7.39 0c0-1.32-1.071-2.39-2.393-2.39a2.389 2.389 0 0 0-2.388 2.39 2.39 2.39 0 1 0 4.78 0zm-7.392 0a2.392 2.392 0 0 0-4.782 0 2.392 2.392 0 0 0 4.782 0zm-7.392 0a2.39 2.39 0 1 0-4.78 0 2.39 2.39 0 0 0 4.78 0zm-7.39 0a2.39 2.39 0 1 0-4.78 0 2.39 2.39 0 1 0 4.78 0zm-7.392 0a2.39 2.39 0 1 0-4.784 0 2.39 2.39 0 0 0 4.784 0zm-7.392 0a2.39 2.39 0 1 0-4.78 0 2.39 2.39 0 0 0 4.78 0zm-7.39 0a2.391 2.391 0 1 0-4.783.001 2.391 2.391 0 0 0 4.782 0zm-7.393 0a2.39 2.39 0 1 0-4.78 0 2.39 2.39 0 0 0 4.78 0zm-7.391 0a2.39 2.39 0 1 0-4.781 0 2.39 2.39 0 0 0 4.78 0zm-7.39 0a2.39 2.39 0 1 0-4.782 0 2.39 2.39 0 0 0 4.781 0zm-7.394 0a2.39 2.39 0 1 0-4.78 0 2.39 2.39 0 1 0 4.78 0zm-7.389 0a2.392 2.392 0 1 0-4.783.002 2.392 2.392 0 0 0 4.783-.002zm-7.393 0a2.39 2.39 0 0 0-2.39-2.39 2.393 2.393 0 0 0-2.392 2.39 2.39 2.39 0 1 0 4.782 0zm-7.39 0a2.391 2.391 0 1 0-4.783.002 2.391 2.391 0 0 0 4.783-.002zm-7.391 0a2.391 2.391 0 1 0-4.783 0 2.391 2.391 0 0 0 4.783 0zm-7.391 0a2.392 2.392 0 1 0-4.783.002 2.392 2.392 0 0 0 4.783-.002zm-7.392 0a2.391 2.391 0 1 0-4.783.002 2.391 2.391 0 0 0 4.783-.002zm-14.782 0a2.392 2.392 0 0 0-4.782 0 2.392 2.392 0 0 0 4.782 0zm-7.393 0a2.39 2.39 0 1 0-4.78 0 2.39 2.39 0 0 0 4.78 0zm-7.391 0a2.39 2.39 0 1 0-4.781 0 2.39 2.39 0 0 0 4.78 0zm-140.434 0a2.391 2.391 0 1 0-4.783.002 2.391 2.391 0 0 0 4.783-.002zm-14.784 0a2.39 2.39 0 1 0-4.78 0 2.39 2.39 0 0 0 4.78 0zm-7.39 0a2.392 2.392 0 1 0-4.784.002 2.392 2.392 0 0 0 4.784-.002zm-36.958 0a2.39 2.39 0 1 0-4.781 0 2.39 2.39 0 0 0 4.781 0zm-7.391 0a2.39 2.39 0 1 0-4.782 0 2.39 2.39 0 0 0 4.782 0zm-7.39 0a2.392 2.392 0 1 0-4.784.002 2.392 2.392 0 0 0 4.783-.002zm-7.392 0a2.391 2.391 0 1 0-4.783.002 2.391 2.391 0 0 0 4.783-.002zm-7.392 0a2.391 2.391 0 1 0-4.782 0 2.391 2.391 0 0 0 4.782 0zm-7.391 0a2.391 2.391 0 1 0-4.783.001 2.391 2.391 0 0 0 4.783 0zm-7.39 0a2.392 2.392 0 1 0-4.784.002 2.392 2.392 0 0 0 4.783-.002zm-7.393 0a2.39 2.39 0 1 0-4.78 0 2.39 2.39 0 0 0 4.78 0zm-7.391 0a2.391 2.391 0 1 0-4.782 0 2.391 2.391 0 0 0 4.782 0zm-7.392 0a2.39 2.39 0 1 0-4.78 0 2.39 2.39 0 0 0 4.78 0zm-12.172 0a2.392 2.392 0 1 0 4.78 0 2.392 2.392 0 0 0-4.78 0zm-36.957 0a2.392 2.392 0 1 0 4.783 0 2.392 2.392 0 0 0-4.783 0zm-7.391 0c0 1.32 1.07 2.392 2.39 2.392a2.392 2.392 0 0 0 0-4.783c-1.32 0-2.39 1.071-2.39 2.391zm633.045-7.391a2.392 2.392 0 1 0-4.784.002 2.392 2.392 0 0 0 4.784-.002zm-7.392 0a2.39 2.39 0 1 0-4.781 0 2.39 2.39 0 0 0 4.781 0zm-12.172 0a2.39 2.39 0 1 0 4.78.001 2.39 2.39 0 0 0-4.78-.001zm-10.002 0a2.391 2.391 0 1 0-4.782.001 2.391 2.391 0 0 0 4.782-.001zm-7.39 0a2.39 2.39 0 1 0-4.78 0 2.391 2.391 0 0 0 4.78 0zm-7.393 0a2.391 2.391 0 1 0-4.782 0 2.391 2.391 0 0 0 4.782 0zm-7.39 0a2.392 2.392 0 1 0-4.784.002 2.392 2.392 0 0 0 4.784-.002zm-7.392 0a2.39 2.39 0 1 0-4.781 0 2.39 2.39 0 0 0 4.781 0zm-7.392 0a2.39 2.39 0 1 0-4.78 0 2.39 2.39 0 0 0 4.78 0zm-7.391 0a2.391 2.391 0 1 0-4.782 0 2.391 2.391 0 0 0 4.782 0zm-7.39 0a2.39 2.39 0 1 0-4.782 0 2.39 2.39 0 0 0 4.781 0zm-7.394 0a2.39 2.39 0 1 0-2.39 2.39 2.39 2.39 0 0 0 2.39-2.39zm-7.392 0a2.39 2.39 0 1 0-4.78-.001 2.39 2.39 0 0 0 4.78 0zm-7.389 0a2.391 2.391 0 1 0-4.783.001 2.391 2.391 0 0 0 4.783-.001zm-7.393 0a2.39 2.39 0 1 0-4.78-.002 2.39 2.39 0 0 0 4.78.002zm-7.39 0a2.39 2.39 0 1 0-4.781 0 2.39 2.39 0 0 0 4.78 0zm-7.391 0a2.392 2.392 0 1 0-4.784.002 2.392 2.392 0 0 0 4.784-.002zm-7.391 0a2.391 2.391 0 1 0-4.783.001 2.391 2.391 0 0 0 4.783-.001zm-7.393 0a2.39 2.39 0 1 0-4.78-.001 2.39 2.39 0 0 0 4.78 0zm-7.389 0c0-1.32-1.072-2.39-2.394-2.39a2.39 2.39 0 0 0 0 4.78 2.393 2.393 0 0 0 2.394-2.39zm-7.393 0a2.392 2.392 0 1 0-4.783.002 2.392 2.392 0 0 0 4.783-.002zm-7.39 0c0-1.32-1.071-2.39-2.393-2.39a2.389 2.389 0 0 0-2.388 2.39 2.391 2.391 0 0 0 4.78 0zm-7.393 0a2.391 2.391 0 1 0-4.782 0 2.391 2.391 0 0 0 4.782 0zm-7.39 0a2.392 2.392 0 1 0-4.784.002 2.392 2.392 0 0 0 4.783-.002zm-7.391 0a2.392 2.392 0 1 0-4.784.002 2.392 2.392 0 0 0 4.784-.002zm-7.393 0a2.391 2.391 0 1 0-4.783 0 2.391 2.391 0 0 0 4.783 0zm-7.39 0a2.392 2.392 0 1 0-4.784.002 2.392 2.392 0 0 0 4.783-.002zm-7.392 0a2.391 2.391 0 1 0-4.782 0 2.391 2.391 0 0 0 4.782 0zm-7.392 0a2.39 2.39 0 1 0-4.78 0 2.39 2.39 0 0 0 4.78 0zm-7.393 0a2.39 2.39 0 1 0-4.78 0 2.391 2.391 0 0 0 4.78 0zm-7.389 0a2.391 2.391 0 1 0-4.783.001 2.391 2.391 0 0 0 4.783-.001zm-7.393 0a2.39 2.39 0 1 0-4.78 0 2.391 2.391 0 0 0 4.78 0zm-7.39 0a2.39 2.39 0 1 0-4.781 0 2.39 2.39 0 0 0 4.78 0zm-7.392 0a2.391 2.391 0 1 0-4.782 0 2.391 2.391 0 0 0 4.782 0zm-7.39 0a2.391 2.391 0 1 0-4.783.001 2.391 2.391 0 0 0 4.783-.001zm-7.392 0a2.39 2.39 0 1 0-4.781 0 2.39 2.39 0 0 0 4.78 0zm-7.39 0a2.393 2.393 0 0 0-4.784 0 2.391 2.391 0 0 0 4.784 0zm-7.392 0a2.391 2.391 0 1 0-4.783.001 2.391 2.391 0 0 0 4.783-.001zm-14.782 0c0-1.32-1.072-2.39-2.394-2.39a2.39 2.39 0 0 0-2.388 2.39c0 1.32 1.068 2.39 2.388 2.39a2.393 2.393 0 0 0 2.394-2.39zm-7.393 0a2.39 2.39 0 1 0-4.78-.001 2.39 2.39 0 0 0 4.78 0zm-110.87 0a2.391 2.391 0 1 0-4.782.001 2.391 2.391 0 0 0 4.782-.001zm-56.514 0a2.385 2.385 0 1 0 4.766 0 2.385 2.385 0 0 0-4.766 0zm-2.616 0a2.391 2.391 0 1 0-4.782 0 2.391 2.391 0 0 0 4.782 0zm-36.957 0a2.391 2.391 0 1 0-4.782 0 2.391 2.391 0 0 0 4.782 0zm-7.391 0a2.391 2.391 0 1 0-4.783.001 2.391 2.391 0 0 0 4.783-.001zm-7.391 0a2.391 2.391 0 1 0-4.782 0 2.391 2.391 0 0 0 4.782 0zm-7.392 0a2.391 2.391 0 1 0-4.782 0 2.391 2.391 0 0 0 4.782 0zm-12.167 0a2.385 2.385 0 0 0 4.77 0 2.384 2.384 0 0 0-4.77 0zm-7.019 0a2.013 2.013 0 1 0 4.026 0 2.013 2.013 0 0 0-4.026 0zm-2.988 0a2.391 2.391 0 1 0-4.782.001 2.391 2.391 0 0 0 4.782-.001zm-7.392 0a2.39 2.39 0 1 0-4.78 0 2.39 2.39 0 0 0 4.78 0zm-7.391 0a2.391 2.391 0 1 0-4.782 0 2.391 2.391 0 0 0 4.782 0zm-7.391 0a2.39 2.39 0 1 0-4.781 0 2.39 2.39 0 0 0 4.78 0zm-7.39 0a2.391 2.391 0 1 0-4.783 0 2.391 2.391 0 0 0 4.782 0zm-12.174 0a2.39 2.39 0 1 0 4.78 0 2.39 2.39 0 0 0-4.78 0zm-7.391 0a2.39 2.39 0 1 0 4.78 0 2.39 2.39 0 0 0-4.78 0zm-7.391 0a2.39 2.39 0 1 0 4.78 0 2.39 2.39 0 0 0-4.78 0zm-7.392 0a2.391 2.391 0 1 0 4.782 0 2.391 2.391 0 0 0-4.782 0zm-2.61 0a2.392 2.392 0 1 0-4.783.002 2.392 2.392 0 0 0 4.784-.002zm-7.392 0a2.39 2.39 0 1 0-4.781 0 2.39 2.39 0 0 0 4.781 0zm-12.172 0a2.39 2.39 0 1 0 4.781 0 2.39 2.39 0 0 0-4.78 0zm647.827-7.391a2.39 2.39 0 1 0-4.783.001 2.39 2.39 0 0 0 4.783-.001zm-7.392 0a2.39 2.39 0 1 0-4.78 0 2.39 2.39 0 0 0 4.78 0zm-7.39 0a2.391 2.391 0 1 0-4.781.001 2.391 2.391 0 0 0 4.781-.001zm-7.392 0a2.39 2.39 0 1 0-4.783.001 2.39 2.39 0 0 0 4.783-.001zm-7.39 0a2.39 2.39 0 1 0-4.781 0 2.39 2.39 0 0 0 4.78 0zm-7.393 0a2.39 2.39 0 1 0-4.78 0 2.39 2.39 0 0 0 4.78 0zm-7.39 0a2.392 2.392 0 0 0-4.781 0 2.39 2.39 0 1 0 4.782 0zm-7.392 0a2.39 2.39 0 1 0-4.78 0 2.39 2.39 0 0 0 4.78 0zm-7.392 0a2.39 2.39 0 0 0-2.39-2.39 2.39 2.39 0 1 0 2.39 2.39zm-7.39 0a2.391 2.391 0 1 0-4.782.002 2.391 2.391 0 0 0 4.782-.002zm-7.392 0a2.39 2.39 0 1 0-4.784 0 2.39 2.39 0 0 0 4.784 0zm-7.393 0a2.39 2.39 0 1 0-4.781 0 2.39 2.39 0 0 0 4.781 0zm-7.389 0a2.392 2.392 0 1 0-4.783.003 2.392 2.392 0 0 0 4.783-.003zm-7.393 0a2.39 2.39 0 1 0-4.781 0 2.392 2.392 0 0 0 4.781 0zm-7.392 0a2.39 2.39 0 1 0-4.78 0 2.39 2.39 0 0 0 4.78 0zm-7.389 0a2.39 2.39 0 1 0-4.781 0 2.39 2.39 0 0 0 4.781 0zm-7.393 0a2.39 2.39 0 1 0-4.78 0 2.39 2.39 0 0 0 4.78 0zm-7.39 0a2.39 2.39 0 0 0-2.39-2.39 2.389 2.389 0 0 0-2.39 2.39 2.39 2.39 0 1 0 4.78 0zm-7.393 0a2.39 2.39 0 1 0-4.781 0 2.39 2.39 0 0 0 4.781 0zm-7.389 0a2.392 2.392 0 1 0-4.783.003 2.392 2.392 0 0 0 4.783-.003zm-7.393 0a2.39 2.39 0 1 0-4.783.001 2.39 2.39 0 0 0 4.783-.001zm-7.39 0a2.39 2.39 0 1 0-4.782 0 2.39 2.39 0 0 0 4.782 0zm-7.392 0a2.391 2.391 0 1 0-4.782.001 2.391 2.391 0 0 0 4.782-.001zm-7.39 0a2.39 2.39 0 0 0-2.393-2.39 2.39 2.39 0 1 0 0 4.78 2.391 2.391 0 0 0 2.393-2.39zm-7.393 0a2.39 2.39 0 1 0-4.78 0 2.39 2.39 0 0 0 4.78 0zm-7.392 0a2.39 2.39 0 0 0-2.39-2.39 2.39 2.39 0 1 0 0 4.78 2.39 2.39 0 0 0 2.39-2.39zm-7.39 0a2.392 2.392 0 0 0-4.782 0 2.39 2.39 0 1 0 4.783 0zm-7.392 0a2.39 2.39 0 1 0-4.78 0 2.39 2.39 0 0 0 4.78 0zm-7.392 0a2.39 2.39 0 1 0-4.78 0 2.39 2.39 0 1 0 4.78 0zm-7.39 0a2.391 2.391 0 1 0-4.783.002 2.391 2.391 0 0 0 4.783-.002zm-7.392 0a2.391 2.391 0 1 0-4.783.002 2.391 2.391 0 0 0 4.783-.002zm-7.393 0a2.39 2.39 0 1 0-4.78.001 2.39 2.39 0 0 0 4.78-.001zm-7.389 0a2.39 2.39 0 1 0-4.781 0 2.39 2.39 0 0 0 4.781 0zm-7.393 0a2.392 2.392 0 0 0-4.782 0c0 1.32 1.072 2.39 2.394 2.39a2.39 2.39 0 0 0 2.388-2.39zm-7.39 0a2.39 2.39 0 0 0-2.391-2.39 2.39 2.39 0 1 0 2.39 2.39zm-7.393 0a2.39 2.39 0 1 0-4.781 0 2.39 2.39 0 0 0 4.78 0zm-7.39 0a2.391 2.391 0 1 0-4.782.002 2.391 2.391 0 0 0 4.783-.002zm-7.391 0a2.39 2.39 0 0 0-2.391-2.39 2.389 2.389 0 0 0-2.39 2.39 2.39 2.39 0 1 0 4.78 0zm-7.393 0a2.39 2.39 0 1 0-4.781 0 2.39 2.39 0 0 0 4.781 0zm-7.39 0a2.392 2.392 0 1 0-4.782.003 2.392 2.392 0 0 0 4.783-.003zm-7.392 0a2.392 2.392 0 1 0-4.781.003 2.392 2.392 0 0 0 4.781-.003zm-7.39 0a2.39 2.39 0 1 0-4.782 0 2.39 2.39 0 0 0 4.782 0zm-7.392 0a2.391 2.391 0 1 0-4.782.001 2.391 2.391 0 0 0 4.782-.001zm-63.913 0a2.39 2.39 0 1 0 4.781 0 2.39 2.39 0 0 0-4.78 0zm-39.565 0a2.39 2.39 0 1 0-4.784 0 2.39 2.39 0 0 0 4.784 0zm-7.392 0a2.39 2.39 0 1 0-4.782 0 2.39 2.39 0 1 0 4.782 0zm-7.39 0a2.391 2.391 0 1 0-4.783.001 2.391 2.391 0 0 0 4.782-.001zm-36.958 0a2.39 2.39 0 1 0-2.39 2.39 2.39 2.39 0 0 0 2.39-2.39zm-7.392 0a2.39 2.39 0 1 0-4.78 0 2.39 2.39 0 0 0 4.78 0zm-22.173 0a2.39 2.39 0 1 0-4.781 0 2.39 2.39 0 0 0 4.78 0zm-7.392 0a2.39 2.39 0 1 0-4.781 0 2.39 2.39 0 1 0 4.781 0zm-7.391 0a2.39 2.39 0 1 0-4.78 0 2.39 2.39 0 0 0 4.78 0zm-7.391 0a2.39 2.39 0 1 0-4.78 0 2.39 2.39 0 0 0 4.78 0zm-7.392 0a2.39 2.39 0 1 0-4.782 0 2.39 2.39 0 0 0 4.782 0zm-7.39 0a2.39 2.39 0 1 0-4.781 0 2.39 2.39 0 0 0 4.78 0zm-7.392 0a2.39 2.39 0 1 0-4.78 0 2.39 2.39 0 0 0 4.78 0zm-7.392 0a2.39 2.39 0 1 0-4.781 0 2.39 2.39 0 1 0 4.781 0zm-7.391 0a2.39 2.39 0 1 0-4.78 0 2.39 2.39 0 0 0 4.78 0zm-7.39 0a2.39 2.39 0 1 0-4.782 0 2.39 2.39 0 0 0 4.781 0zm-7.393 0a2.39 2.39 0 1 0-4.782 0 2.39 2.39 0 0 0 4.782 0zm-7.391 0a2.39 2.39 0 1 0-4.78 0 2.39 2.39 0 0 0 4.78 0zm-7.392 0a2.39 2.39 0 1 0-4.782 0 2.39 2.39 0 0 0 4.782 0zm-7.39 0a2.39 2.39 0 1 0-4.782 0 2.39 2.39 0 0 0 4.781 0zm-7.392 0a2.39 2.39 0 1 0-4.781 0 2.39 2.39 0 1 0 4.781 0zm-7.391 0a2.39 2.39 0 1 0-4.78 0 2.39 2.39 0 0 0 4.78 0zm-7.39 0a2.39 2.39 0 1 0-4.782 0 2.39 2.39 0 0 0 4.781 0zm-7.393 0a2.39 2.39 0 1 0-4.78 0 2.39 2.39 0 0 0 4.78 0zm-7.391 0a2.39 2.39 0 1 0-4.78 0 2.39 2.39 0 0 0 4.78 0zm-7.392 0a2.39 2.39 0 1 0-4.78 0 2.39 2.39 0 0 0 4.78 0zm653.054-7.391a2.384 2.384 0 1 0 4.767 0 2.384 2.384 0 0 0-4.767 0zm-7.398 0a2.391 2.391 0 1 0 4.783-.002 2.391 2.391 0 0 0-4.783.002zm-7.392 0a2.391 2.391 0 1 0 4.783-.002 2.391 2.391 0 0 0-4.783.002zm-2.609 0a2.392 2.392 0 0 0-4.782 0 2.39 2.39 0 0 0 4.782 0zm-7.392 0a2.39 2.39 0 1 0-4.781-.002 2.39 2.39 0 0 0 4.781.002zm-7.391 0a2.391 2.391 0 1 0-4.782-.001 2.391 2.391 0 0 0 4.782.001zm-7.39 0a2.39 2.39 0 1 0-4.783-.002 2.39 2.39 0 0 0 4.782.002zm-7.391 0a2.391 2.391 0 1 0-4.783-.001 2.391 2.391 0 0 0 4.783.001zm-7.393 0a2.391 2.391 0 1 0-4.783 0 2.391 2.391 0 0 0 4.783 0zm-7.39 0a2.393 2.393 0 0 0-2.393-2.392 2.389 2.389 0 0 0-2.388 2.392c0 1.32 1.067 2.39 2.388 2.39a2.393 2.393 0 0 0 2.394-2.39zm-7.392 0a2.391 2.391 0 1 0-4.782 0 2.391 2.391 0 0 0 4.782 0zm-7.392 0a2.39 2.39 0 1 0-4.781-.002 2.39 2.39 0 0 0 4.781.002zm-7.391 0a2.391 2.391 0 1 0-4.783 0 2.391 2.391 0 0 0 4.783 0zm-7.39 0a2.391 2.391 0 1 0-4.782 0 2.391 2.391 0 0 0 4.781 0zm-7.394 0a2.39 2.39 0 1 0-4.782 0c0 1.32 1.072 2.39 2.392 2.39a2.39 2.39 0 0 0 2.39-2.39zm-7.39 0a2.392 2.392 0 1 0-4.783 0 2.392 2.392 0 0 0 4.783 0zm-7.392 0a2.391 2.391 0 1 0-4.782 0 2.391 2.391 0 0 0 4.782 0zm-7.392 0a2.39 2.39 0 1 0-4.78-.002 2.39 2.39 0 0 0 4.78.002zm-7.39 0a2.39 2.39 0 1 0-4.781-.002 2.39 2.39 0 0 0 4.78.002zm-7.393 0a2.39 2.39 0 1 0-4.78-.003 2.39 2.39 0 0 0 4.78.003zm-7.39 0a2.391 2.391 0 1 0-4.783-.001 2.391 2.391 0 0 0 4.784.001zm-7.392 0a2.39 2.39 0 1 0-4.78-.002 2.39 2.39 0 0 0 4.78.002zm-7.39 0a2.392 2.392 0 1 0-4.784 0 2.392 2.392 0 0 0 4.784 0zm-7.392 0a2.391 2.391 0 1 0-4.782 0 2.391 2.391 0 0 0 4.782 0zm-7.39 0a2.392 2.392 0 1 0-4.784 0 2.392 2.392 0 0 0 4.784 0zm-7.393 0a2.391 2.391 0 1 0-4.782-.001 2.391 2.391 0 0 0 4.782.001zm-7.39 0a2.393 2.393 0 0 0-2.393-2.392 2.39 2.39 0 0 0 0 4.782 2.393 2.393 0 0 0 2.394-2.39zm-7.392 0a2.392 2.392 0 0 0-4.782 0 2.391 2.391 0 0 0 4.782 0zm-7.392 0a2.39 2.39 0 1 0-4.781-.002 2.39 2.39 0 0 0 4.78.002zm-7.39 0a2.393 2.393 0 0 0-2.393-2.392 2.39 2.39 0 0 0-2.389 2.392 2.39 2.39 0 0 0 2.389 2.39 2.393 2.393 0 0 0 2.394-2.39zm-12.05 0a2.266 2.266 0 1 0 4.532-.001 2.266 2.266 0 0 0-4.532.001zm-2.734 0a2.39 2.39 0 1 0-4.781-.002 2.39 2.39 0 0 0 4.78.002zm-7.391 0a2.391 2.391 0 1 0-4.783 0 2.391 2.391 0 0 0 4.783 0zm-7.391 0a2.392 2.392 0 1 0-4.784 0 2.392 2.392 0 0 0 4.784 0zm-7.393 0a2.39 2.39 0 0 0-2.388-2.392 2.393 2.393 0 0 0-2.394 2.392c0 1.32 1.072 2.39 2.394 2.39a2.39 2.39 0 0 0 2.388-2.39zm-7.39 0a2.39 2.39 0 1 0-4.782-.002 2.39 2.39 0 0 0 4.782.002zm-7.392 0a2.391 2.391 0 1 0-4.782-.001 2.391 2.391 0 0 0 4.782.001zm-14.788 0a2.384 2.384 0 1 0-4.77 0 2.384 2.384 0 0 0 4.77 0zm-12.16 0a2.384 2.384 0 1 0 4.768-.002 2.384 2.384 0 0 0-4.768.002zm-7.393 0a2.385 2.385 0 0 0 4.77 0 2.384 2.384 0 0 0-4.77 0zm-2.616 0a2.39 2.39 0 1 0-4.781-.002 2.39 2.39 0 0 0 4.781.002zm-7.39 0a2.392 2.392 0 1 0-4.784 0 2.392 2.392 0 0 0 4.783 0zm-7.392 0a2.392 2.392 0 1 0-4.783 0 2.392 2.392 0 0 0 4.783 0zm-7.39 0a2.391 2.391 0 1 0-4.783-.001 2.391 2.391 0 0 0 4.783.001zm-103.48 0a2.391 2.391 0 1 0-4.782 0 2.391 2.391 0 0 0 4.782 0zm-7.39 0a2.392 2.392 0 1 0-4.784 0 2.392 2.392 0 0 0 4.784 0zm-7.393 0a2.391 2.391 0 1 0-4.782-.001 2.391 2.391 0 0 0 4.782.001zm-7.391 0a2.391 2.391 0 1 0-4.782-.001 2.391 2.391 0 0 0 4.782.001zm-11.53 0a1.75 1.75 0 1 0 3.498-.002 1.75 1.75 0 0 0-3.499.002zm-18.036 0a2.391 2.391 0 1 0-4.782-.001 2.391 2.391 0 0 0 4.782.001zm-7.39 0a2.391 2.391 0 1 0-4.783 0 2.391 2.391 0 0 0 4.783 0zm-7.392 0a2.39 2.39 0 1 0-4.781-.002 2.39 2.39 0 0 0 4.78.002zm-22.174 0a2.391 2.391 0 1 0-4.782 0 2.391 2.391 0 0 0 4.782 0zm-7.392 0a2.391 2.391 0 1 0-4.781-.001 2.391 2.391 0 0 0 4.781.001zm-7.39 0a2.392 2.392 0 1 0-4.784 0 2.392 2.392 0 0 0 4.784 0zm-7.391 0a2.391 2.391 0 1 0-4.783 0 2.391 2.391 0 0 0 4.783 0zm-7.392 0a2.392 2.392 0 1 0-4.783 0 2.392 2.392 0 0 0 4.783 0zm-7.391 0a2.392 2.392 0 1 0-4.783 0 2.392 2.392 0 0 0 4.783 0zm-12.058 0a2.275 2.275 0 1 0 4.55-.002 2.275 2.275 0 0 0-4.55.002zm-2.725 0a2.392 2.392 0 1 0-4.783 0 2.392 2.392 0 0 0 4.783 0zm-7.392 0a2.391 2.391 0 1 0-4.782-.001 2.391 2.391 0 0 0 4.782.001zm-7.39 0a2.392 2.392 0 1 0-4.784 0 2.392 2.392 0 0 0 4.784 0zm-7.392 0a2.39 2.39 0 1 0-4.782-.002 2.39 2.39 0 0 0 4.782.002zm-7.392 0a2.391 2.391 0 1 0-4.782 0 2.391 2.391 0 0 0 4.782 0zm-7.391 0a2.391 2.391 0 1 0-4.782 0 2.391 2.391 0 0 0 4.782 0zm-7.391 0a2.391 2.391 0 1 0-4.783 0 2.391 2.391 0 0 0 4.783 0zm-7.39 0a2.392 2.392 0 1 0-4.784 0 2.392 2.392 0 0 0 4.783 0zm-7.393 0a2.391 2.391 0 1 0-4.782-.001 2.391 2.391 0 0 0 4.782.001zm-7.39 0a2.392 2.392 0 1 0-4.784 0 2.392 2.392 0 0 0 4.783 0zm-7.393 0a2.391 2.391 0 1 0-4.782 0 2.391 2.391 0 0 0 4.782 0zm-7.391 0a2.391 2.391 0 1 0-4.782 0 2.391 2.391 0 0 0 4.782 0zm-7.391 0a2.391 2.391 0 1 0-4.782-.001 2.391 2.391 0 0 0 4.782.001zm643.045-7.392a2.39 2.39 0 1 0-4.78 0 2.39 2.39 0 0 0 4.78 0zm-7.391 0a2.39 2.39 0 1 0-4.78 0 2.39 2.39 0 0 0 4.78 0zm-7.39 0a2.391 2.391 0 1 0-4.783.002 2.391 2.391 0 0 0 4.782-.002zm-7.399 0a2.384 2.384 0 1 0-4.768 0 2.384 2.384 0 0 0 4.768 0zm-7.385 0a2.39 2.39 0 1 0-4.781.001 2.39 2.39 0 0 0 4.78-.001zm-7.39 0a2.392 2.392 0 0 0-4.782 0 2.39 2.39 0 0 0 2.389 2.391 2.393 2.393 0 0 0 2.394-2.391zm-7.392 0a2.39 2.39 0 1 0-4.781.001 2.39 2.39 0 0 0 4.781-.001zm-7.392 0a2.39 2.39 0 1 0-4.78 0 2.389 2.389 0 1 0 4.78 0zm-7.391 0a2.391 2.391 0 1 0-4.782.002 2.391 2.391 0 0 0 4.782-.002zm-7.391 0a2.391 2.391 0 1 0-4.782.002 2.391 2.391 0 0 0 4.782-.002zm-7.391 0a2.39 2.39 0 1 0-4.781 0 2.39 2.39 0 0 0 4.78 0zm-7.392 0a2.39 2.39 0 1 0-4.782.001 2.39 2.39 0 0 0 4.782-.001zm-7.392 0a2.39 2.39 0 1 0-4.78 0 2.39 2.39 0 0 0 4.78 0zm-7.39 0a2.39 2.39 0 1 0-4.782.001 2.39 2.39 0 0 0 4.782-.001zm-7.392 0a2.39 2.39 0 1 0-4.781 0 2.391 2.391 0 1 0 4.78 0zm-7.392 0a2.39 2.39 0 1 0-4.78.001 2.39 2.39 0 0 0 4.78-.001zm-7.39 0a2.39 2.39 0 1 0-4.782.001 2.39 2.39 0 0 0 4.782-.001zm-7.393 0a2.39 2.39 0 1 0-4.78 0 2.39 2.39 0 0 0 4.78 0zm-7.39 0a2.39 2.39 0 1 0-4.782.001 2.39 2.39 0 0 0 4.781-.001zm-7.392 0a2.391 2.391 0 1 0-4.782.002 2.391 2.391 0 0 0 4.782-.002zm-7.39 0a2.39 2.39 0 1 0-4.782.001 2.39 2.39 0 0 0 4.782-.001zm-7.393 0a2.39 2.39 0 1 0-2.39 2.392 2.39 2.39 0 0 0 2.39-2.392zm-7.39 0a2.392 2.392 0 0 0-4.782 0 2.39 2.39 0 1 0 4.783 0zm-7.392 0a2.39 2.39 0 1 0-4.78 0 2.39 2.39 0 0 0 4.78 0zm-7.392 0a2.39 2.39 0 1 0-4.781 0 2.39 2.39 0 1 0 4.78 0zm-7.39 0a2.392 2.392 0 1 0-4.784.003 2.392 2.392 0 0 0 4.784-.003zm-7.392 0a2.392 2.392 0 1 0-4.783.003 2.392 2.392 0 0 0 4.783-.003zm-14.784 0a2.39 2.39 0 1 0-4.78.001 2.39 2.39 0 0 0 4.78-.001zm-14.781 0a2.39 2.39 0 1 0-4.782.001 2.39 2.39 0 0 0 4.782-.001zm-9.783 1.623c.898 0 1.623-.726 1.623-1.623a1.623 1.623 0 1 0-1.623 1.623zm-41.958-1.623a2.39 2.39 0 1 0-4.78 0 2.39 2.39 0 1 0 4.78 0zm-7.39 0a2.39 2.39 0 1 0-4.782 0 2.39 2.39 0 1 0 4.781 0zm-7.392 0a2.391 2.391 0 1 0-4.782.002 2.391 2.391 0 0 0 4.782-.002zm-7.39 0a2.39 2.39 0 1 0-4.782.001 2.39 2.39 0 0 0 4.781-.001zm-7.393 0a2.39 2.39 0 1 0-4.781 0 2.39 2.39 0 1 0 4.78 0zm-9.783.785a.785.785 0 1 0 0 0zm-83.693-.785a2.391 2.391 0 1 0 4.782.001 2.391 2.391 0 0 0-4.782-.001zm-7.392 0a2.392 2.392 0 1 0 4.783 0 2.392 2.392 0 0 0-4.783 0zm-7.39 0a2.391 2.391 0 1 0 4.782 0 2.391 2.391 0 0 0-4.783 0zm-2.611 0a2.39 2.39 0 1 0-4.781 0 2.391 2.391 0 1 0 4.78 0zm-7.391 0a2.391 2.391 0 1 0-4.782.002 2.391 2.391 0 0 0 4.782-.002zm-7.392 0a2.39 2.39 0 1 0-4.78 0 2.39 2.39 0 0 0 4.78 0zm-7.391 0a2.39 2.39 0 1 0-4.78 0 2.39 2.39 0 0 0 4.78 0zm-36.963 0a2.384 2.384 0 1 0-4.769 0 2.384 2.384 0 0 0 4.769 0zm-7.385 0a2.39 2.39 0 1 0-4.78 0 2.39 2.39 0 0 0 4.78 0zm-22.174 0a2.391 2.391 0 1 0-4.782.002 2.391 2.391 0 0 0 4.782-.002zm-9.782 2.384a2.384 2.384 0 1 0 0-4.768 2.384 2.384 0 0 0 0 4.768zm-5-2.384a2.39 2.39 0 1 0-4.782.001 2.39 2.39 0 0 0 4.781-.001zm-7.391 0a2.391 2.391 0 1 0-4.782.002 2.391 2.391 0 0 0 4.782-.002zm-14.79 0a2.384 2.384 0 1 0-4.768 0 2.384 2.384 0 0 0 4.767 0zm-14.776 0a2.39 2.39 0 1 0-4.781 0 2.39 2.39 0 0 0 4.78 0zm-7.392 0a2.39 2.39 0 1 0-4.78 0 2.39 2.39 0 0 0 4.78 0zm-7.391 0a2.39 2.39 0 1 0-4.78 0 2.39 2.39 0 0 0 4.78 0zm-7.392 0a2.39 2.39 0 1 0-4.782 0 2.392 2.392 0 0 0 4.782 0zm-7.39 0a2.39 2.39 0 1 0-4.782 0 2.39 2.39 0 0 0 4.781 0zm-7.393 0a2.39 2.39 0 1 0-4.781 0 2.392 2.392 0 0 0 4.781 0zm-7.39 0a2.39 2.39 0 1 0-4.782.001 2.39 2.39 0 0 0 4.782-.001zm-7.392 0a2.39 2.39 0 1 0-4.78 0 2.39 2.39 0 0 0 4.78 0zm-7.391 0a2.39 2.39 0 1 0-4.782.001 2.39 2.39 0 0 0 4.782-.001zm-7.39 0a2.391 2.391 0 1 0-4.782.002 2.391 2.391 0 0 0 4.781-.002zm-7.393 0a2.39 2.39 0 1 0-4.78 0 2.39 2.39 0 0 0 4.78 0zm-7.391 0a2.39 2.39 0 1 0-4.782.001 2.39 2.39 0 0 0 4.782-.001zm-7.391 0a2.39 2.39 0 1 0-4.78 0 2.39 2.39 0 0 0 4.78 0zm-7.392 0a2.39 2.39 0 1 0-4.78 0 2.39 2.39 0 0 0 4.78 0zm-11.787 0a2.005 2.005 0 1 0 4.01 0 2.005 2.005 0 0 0-4.01 0zm662.224-7.391a2.39 2.39 0 1 0-4.78 0 2.39 2.39 0 0 0 4.78 0zm-44.347 0a2.391 2.391 0 1 0-4.783.002 2.391 2.391 0 0 0 4.783-.002zm-14.783 0a2.39 2.39 0 1 0-4.781 0 2.39 2.39 0 0 0 4.78 0zm-7.391 0a2.39 2.39 0 1 0-4.781 0 2.39 2.39 0 0 0 4.781 0zm-7.391 0a2.392 2.392 0 1 0-2.392 2.39 2.39 2.39 0 0 0 2.392-2.39zm-7.392 0a2.39 2.39 0 1 0-4.781 0 2.39 2.39 0 0 0 4.78 0zm-7.398 0a2.384 2.384 0 1 0-4.768 0 2.384 2.384 0 0 0 4.768 0zm-7.384 0a2.391 2.391 0 1 0-4.783.002 2.391 2.391 0 0 0 4.783-.002zm-7.392 0a2.39 2.39 0 1 0-4.781 0 2.39 2.39 0 1 0 4.78 0zm-7.393 0a2.39 2.39 0 1 0-4.78.001 2.39 2.39 0 0 0 4.78-.001zm-7.39 0a2.39 2.39 0 1 0-4.78 0 2.39 2.39 0 0 0 4.78 0zm-7.392 0a2.39 2.39 0 1 0-4.78.001 2.39 2.39 0 0 0 4.78-.001zm-7.39 0a2.39 2.39 0 1 0-4.781 0 2.39 2.39 0 0 0 4.78 0zm-7.392-7.392a2.392 2.392 0 1 0-4.783.002 2.392 2.392 0 0 0 4.783-.002zm0 7.392a2.39 2.39 0 1 0-4.78 0 2.39 2.39 0 0 0 4.78 0zm-7.39 0a2.39 2.39 0 1 0-4.781 0 2.39 2.39 0 0 0 4.78 0zm-7.393 0c0-1.321-1.069-2.39-2.39-2.39a2.39 2.39 0 1 0 0 4.78 2.39 2.39 0 0 0 2.39-2.39zm-7.39 0a2.392 2.392 0 0 0-4.782 0 2.39 2.39 0 0 0 2.389 2.39 2.393 2.393 0 0 0 2.394-2.39zm-7.392 0a2.39 2.39 0 1 0-4.781 0 2.39 2.39 0 0 0 4.78 0zm-7.392 0a2.39 2.39 0 0 0-2.391-2.39 2.39 2.39 0 1 0 2.39 2.39zm-7.392 0a2.39 2.39 0 1 0-4.78 0 2.39 2.39 0 0 0 4.78 0zm-7.39 0a2.391 2.391 0 1 0-4.782.002 2.391 2.391 0 0 0 4.782-.002zm-7.39 0a2.39 2.39 0 0 0-2.393-2.39 2.391 2.391 0 1 0 2.392 2.39zm-7.394 0a2.39 2.39 0 1 0-4.78 0 2.39 2.39 0 0 0 4.78 0zm-7.39 0a2.39 2.39 0 1 0-4.781 0 2.39 2.39 0 0 0 4.78 0zm-22.175 0a2.39 2.39 0 1 0-4.783.001 2.39 2.39 0 0 0 4.783-.001zm-51.747 0a2.384 2.384 0 1 0-4.767 0 2.384 2.384 0 0 0 4.767 0zm-100.861 0a2.392 2.392 0 1 0 4.783-.002 2.392 2.392 0 0 0-4.783.002zm-2.61 0a2.39 2.39 0 1 0-4.78 0 2.39 2.39 0 0 0 4.78 0zm-7.39 0a2.39 2.39 0 1 0-4.78 0 2.39 2.39 0 0 0 4.78 0zm-7.391 0a2.39 2.39 0 1 0-4.781 0 2.39 2.39 0 0 0 4.78 0zm-7.392 0a2.39 2.39 0 1 0-4.782 0 2.39 2.39 0 0 0 4.782 0zm-7.391 0a2.39 2.39 0 1 0-4.781 0 2.39 2.39 0 0 0 4.781 0zm-7.392 0a2.39 2.39 0 1 0-4.782 0 2.39 2.39 0 1 0 4.782 0zm-7.391 0a2.39 2.39 0 1 0-4.782 0 2.39 2.39 0 0 0 4.782 0zm-49.123 0a2.384 2.384 0 1 0 4.767 0 2.384 2.384 0 0 0-4.767 0zm-2.617 0a2.39 2.39 0 1 0-4.78 0 2.39 2.39 0 0 0 4.78 0zm-7.39 0a2.39 2.39 0 1 0-4.784 0 2.39 2.39 0 0 0 4.783 0zm-7.392 0a2.39 2.39 0 1 0-4.781 0 2.39 2.39 0 0 0 4.78 0zm-9.782-.775a.775.775 0 1 0 0 1.549.775.775 0 0 0 0-1.549zm-17.167.775a2.384 2.384 0 1 0 4.768 0 2.384 2.384 0 0 0-4.768 0zm-17.4 0a2.39 2.39 0 1 0-4.78 0 2.39 2.39 0 0 0 4.78 0zm-7.39 0a2.39 2.39 0 1 0-4.781 0 2.39 2.39 0 0 0 4.78 0zm-7.393 0a2.39 2.39 0 1 0-4.782 0 2.39 2.39 0 0 0 4.782 0zm458.264-7.392a2.39 2.39 0 1 0-4.781 0 2.39 2.39 0 0 0 4.78 0zm-14.782 0a2.392 2.392 0 1 0-4.784.002 2.392 2.392 0 0 0 4.784-.002zm-7.393 0a2.39 2.39 0 1 0-4.78-.001 2.39 2.39 0 0 0 4.78.001zm-12.171 0a2.39 2.39 0 1 0 4.78.002 2.39 2.39 0 0 0-4.78-.002zm-12.392 2.391a2.391 2.391 0 1 0-.002-4.783 2.391 2.391 0 0 0 .002 4.783zm-9.783-2.39a2.39 2.39 0 1 0 4.78 0 2.39 2.39 0 0 0-4.78 0zm-5.002 2.39a2.393 2.393 0 0 0 2.394-2.39c0-1.32-1.073-2.391-2.394-2.391a2.39 2.39 0 0 0 0 4.781zm-5-2.39a2.392 2.392 0 1 0-4.783.001 2.392 2.392 0 0 0 4.784-.002zm-7.391 0a2.39 2.39 0 1 0-4.781-.001 2.39 2.39 0 0 0 4.78 0zm-7.392 0a2.391 2.391 0 1 0-4.782 0 2.391 2.391 0 0 0 4.782 0zm-15.682 0a1.49 1.49 0 1 0-2.982 0 1.491 1.491 0 1 0 2.982 0zm-6.498 0a2.385 2.385 0 1 0-4.769 0 2.385 2.385 0 0 0 4.77 0zm-29.559 0a2.39 2.39 0 1 0-4.781 0 2.39 2.39 0 0 0 4.781 0zm-155.217 0a2.391 2.391 0 1 0-4.782 0 2.391 2.391 0 0 0 4.782 0zm-7.392 0a2.391 2.391 0 1 0-4.782 0 2.391 2.391 0 0 0 4.782 0zm-7.39 0a2.392 2.392 0 1 0-4.784.001 2.392 2.392 0 0 0 4.784-.002zm-7.392 0a2.39 2.39 0 1 0-4.782 0 2.39 2.39 0 0 0 4.782 0zm-7.391 0a2.392 2.392 0 1 0-4.784.001 2.392 2.392 0 0 0 4.784-.002zm-7.393 0a2.39 2.39 0 1 0-4.781 0 2.39 2.39 0 0 0 4.781 0zm-7.39 0a2.391 2.391 0 1 0-4.783 0 2.391 2.391 0 0 0 4.783 0zm-7.392 0a2.391 2.391 0 1 0-4.782 0 2.391 2.391 0 0 0 4.782 0zm-49.113 0a2.375 2.375 0 1 0 4.75-.002 2.375 2.375 0 0 0-4.75.001zm-10.017 0a2.392 2.392 0 1 0-4.783.001 2.392 2.392 0 0 0 4.783-.002zm-7.392 0a2.39 2.39 0 1 0-4.782 0 2.39 2.39 0 0 0 4.782 0zm-9.782 2.383a2.382 2.382 0 1 0 0-4.768 2.384 2.384 0 0 0 0 4.768zm-12.392-2.384a2.391 2.391 0 1 0-4.782.002 2.391 2.391 0 0 0 4.782-.002zm-14.782 0a2.391 2.391 0 1 0-4.783.002 2.391 2.391 0 0 0 4.783-.002zm-14.784 0a2.39 2.39 0 1 0-4.78 0 2.39 2.39 0 0 0 4.78 0zm-7.39 0a2.392 2.392 0 1 0-4.783.002 2.392 2.392 0 0 0 4.783-.002zm-7.392 0a2.39 2.39 0 1 0-4.781 0 2.39 2.39 0 0 0 4.78 0zm517.394-7.391a2.39 2.39 0 1 0-4.78 0 2.39 2.39 0 0 0 4.78 0zm-14.782 0a2.392 2.392 0 1 0-4.784.002 2.392 2.392 0 0 0 4.784-.002zm-59.132 0a2.39 2.39 0 1 0-4.781 0 2.39 2.39 0 0 0 4.781 0zm-7.39 0a2.392 2.392 0 1 0-4.785.003 2.392 2.392 0 0 0 4.784-.003zm-7.391 0a2.392 2.392 0 1 0-4.784.002 2.392 2.392 0 0 0 4.784-.002zm-7.393 0a2.39 2.39 0 1 0-4.78 0 2.39 2.39 0 0 0 4.78 0zm-12.172 0a2.39 2.39 0 1 0 4.783 0 2.39 2.39 0 1 0-4.782 0zm-2.61 0a2.392 2.392 0 0 0-4.783 0 2.392 2.392 0 0 0 4.783 0zm-59.131 0a2.391 2.391 0 1 0-4.782 0 2.391 2.391 0 0 0 4.782 0zm-152.602 0a2.384 2.384 0 1 0 4.767 0 2.384 2.384 0 0 0-4.767 0zm-2.616 0a2.392 2.392 0 1 0-4.784.002 2.392 2.392 0 0 0 4.784-.002zm-7.391 0a2.391 2.391 0 1 0-4.783.001 2.391 2.391 0 0 0 4.783-.001zm-7.392 0a2.391 2.391 0 1 0-4.783.001 2.391 2.391 0 0 0 4.783-.001zm-7.39 0a2.392 2.392 0 1 0-4.78.002 2.392 2.392 0 0 0 4.78-.002zm-7.392 0a2.391 2.391 0 1 0-4.783.001 2.391 2.391 0 0 0 4.783-.001zm-7.392 0a2.391 2.391 0 1 0-4.782 0 2.391 2.391 0 0 0 4.782 0zm-7.392 0a2.391 2.391 0 1 0-4.782.001 2.391 2.391 0 0 0 4.782-.001zm-7.39 0a2.392 2.392 0 1 0-4.784.002 2.392 2.392 0 0 0 4.784-.002zm-7.392 0a2.391 2.391 0 1 0-4.783.001 2.391 2.391 0 0 0 4.783-.001zm-7.392 0a2.391 2.391 0 1 0-4.783.001 2.391 2.391 0 0 0 4.783-.001zm-46.738-2.384a2.384 2.384 0 1 0 0 4.769 2.384 2.384 0 0 0 0-4.769zm-5.001 2.384a2.391 2.391 0 1 0-4.783.001 2.391 2.391 0 0 0 4.783-.001zm-7.391 0a2.391 2.391 0 1 0-4.783.001 2.391 2.391 0 0 0 4.783-.001zm-14.782 0a2.391 2.391 0 1 0-4.78.001 2.391 2.391 0 0 0 4.78-.001zm-7.392 0a2.392 2.392 0 1 0-4.783.002 2.392 2.392 0 0 0 4.783-.002zm-7.408 0a2.374 2.374 0 1 0-4.747 0 2.374 2.374 0 0 0 4.747 0zm-7.374 0a2.392 2.392 0 1 0-4.784.002 2.392 2.392 0 0 0 4.784-.002zm-14.784 0a2.391 2.391 0 1 0-4.781 0 2.391 2.391 0 0 0 4.781 0zm420.787-7.39a1.871 1.871 0 0 0-3.74 0 1.87 1.87 0 0 0 3.74 0zm-6.87 0a2.391 2.391 0 1 0-4.783-.001 2.391 2.391 0 0 0 4.783 0zM131.396 22.18a2.384 2.384 0 1 0 .003 4.768 2.384 2.384 0 0 0-.003-4.768zm-64.13 2.384a2.392 2.392 0 1 0-4.783.001 2.392 2.392 0 0 0 4.784 0zm-12.166 0a2.384 2.384 0 1 0 4.769 0 2.384 2.384 0 0 0-4.769 0zm-2.616 0a2.391 2.391 0 1 0-4.783 0 2.391 2.391 0 0 0 4.783 0zm-7.393 0a2.39 2.39 0 1 0-4.78-.003 2.39 2.39 0 0 0 4.78.003zm-7.39 0a2.391 2.391 0 1 0-4.782 0 2.391 2.391 0 0 0 4.782 0zm-7.391 0a2.39 2.39 0 1 0-4.781-.002 2.39 2.39 0 0 0 4.78.002zm-12.173 0a2.39 2.39 0 1 0 4.78 0 2.39 2.39 0 1 0-4.78 0zm-7.392 0a2.39 2.39 0 1 0 4.781 0 2.39 2.39 0 1 0-4.78 0zm-7.39 0a2.39 2.39 0 1 0 4.78 0 2.391 2.391 0 1 0-4.78 0zm-2.61 0a2.39 2.39 0 1 0-4.782-.001 2.39 2.39 0 0 0 4.781.001zm-7.393 0a2.39 2.39 0 1 0-4.781-.001 2.39 2.39 0 0 0 4.781.001zm-7.39 0a2.391 2.391 0 1 0-4.783 0 2.391 2.391 0 0 0 4.783 0zm-7.392 0a2.39 2.39 0 1 0-4.781-.002 2.39 2.39 0 0 0 4.78.002zm-9.782-2.384a2.384 2.384 0 1 0 0 4.767 2.384 2.384 0 0 0 0-4.767zm-19.784 2.384a2.39 2.39 0 1 0-4.781 0 2.39 2.39 0 1 0 4.781 0zm-7.391 0a2.39 2.39 0 1 0-4.781-.001 2.39 2.39 0 0 0 4.781.001zm-12.156 0a2.374 2.374 0 1 0 4.747 0 2.374 2.374 0 0 0-4.747 0zm-10.017 0a2.391 2.391 0 1 0-4.783 0 2.391 2.391 0 0 0 4.783 0zm-44.349 0a2.39 2.39 0 1 0-4.781-.001 2.39 2.39 0 0 0 4.781.001zM296.4 17.173a2.392 2.392 0 1 0-4.784.003 2.392 2.392 0 0 0 4.784-.003zm-8.042 0a1.742 1.742 0 1 0-3.483.001 1.742 1.742 0 0 0 3.483 0zm-147.178 0a2.39 2.39 0 1 0-4.781 0 2.39 2.39 0 1 0 4.78 0zm-7.391 0a2.391 2.391 0 1 0-4.783.001 2.391 2.391 0 0 0 4.783 0zm-7.391 0a2.391 2.391 0 1 0-4.783.001 2.391 2.391 0 0 0 4.783 0zm-66.523 0a2.39 2.39 0 1 0-4.781 0 2.39 2.39 0 0 0 4.781 0zm-7.39 0a2.391 2.391 0 1 0-4.783.001 2.391 2.391 0 0 0 4.783 0zm-7.393 0a2.39 2.39 0 1 0-4.78 0 2.39 2.39 0 1 0 4.78 0zm-7.39 0a2.391 2.391 0 1 0-4.782.001 2.391 2.391 0 0 0 4.782 0zm-7.391 0a2.39 2.39 0 1 0-4.781 0 2.39 2.39 0 0 0 4.78 0zm-7.392 0a2.39 2.39 0 1 0-4.78-.001 2.39 2.39 0 0 0 4.78.001zm-7.392 0a2.39 2.39 0 1 0-4.78 0 2.39 2.39 0 0 0 4.78 0zm-7.39 0a2.391 2.391 0 1 0-4.782 0 2.391 2.391 0 0 0 4.782 0zm-7.392 0a2.39 2.39 0 1 0-4.78 0 2.39 2.39 0 0 0 4.78 0zm-7.392 0a2.39 2.39 0 1 0-4.78 0 2.39 2.39 0 0 0 4.78 0zm-7.391 0a2.39 2.39 0 1 0-4.781 0 2.39 2.39 0 0 0 4.78 0zm-7.391 0a2.39 2.39 0 1 0-4.781 0 2.39 2.39 0 0 0 4.78 0zm-7.392 0a2.39 2.39 0 1 0-4.78 0 2.39 2.39 0 0 0 4.78 0zm-14.782 0a2.391 2.391 0 1 0-4.782.001 2.391 2.391 0 0 0 4.782 0zm-7.392 0a2.39 2.39 0 1 0-4.78 0 2.39 2.39 0 0 0 4.78 0zm-7.391 0a2.391 2.391 0 1 0-4.782 0 2.391 2.391 0 0 0 4.782 0zm-7.398 0a2.384 2.384 0 1 0-4.769 0 2.384 2.384 0 0 0 4.769 0zm-7.385 0a2.39 2.39 0 1 0-4.78 0 2.39 2.39 0 0 0 4.78 0zm-22.559 0a2.004 2.004 0 1 0-4.009 0 2.004 2.004 0 0 0 4.009 0zm377.343-7.39a2.39 2.39 0 1 0-4.78 0 2.39 2.39 0 1 0 4.78 0zm-214.347 0a2.392 2.392 0 1 0-4.784.001 2.392 2.392 0 0 0 4.784-.002zm-7.393 0a2.39 2.39 0 1 0-4.781 0 2.39 2.39 0 0 0 4.781 0zm-7.39 0a2.391 2.391 0 1 0-4.783 0 2.391 2.391 0 0 0 4.783 0zm-7.393 0a2.39 2.39 0 1 0-4.78 0 2.391 2.391 0 1 0 4.78 0zm-7.39 0a2.391 2.391 0 1 0-4.782 0 2.391 2.391 0 0 0 4.782 0zm-7.391 0a2.39 2.39 0 1 0-4.781-.002 2.39 2.39 0 0 0 4.78.001zm-7.392 0a2.39 2.39 0 1 0-4.782 0 2.392 2.392 0 0 0 4.782 0zm-7.392 0a2.39 2.39 0 1 0-4.78-.002 2.39 2.39 0 0 0 4.78.001zm-7.39 0a2.391 2.391 0 1 0-4.782 0 2.391 2.391 0 0 0 4.782 0zm-7.392 0a2.39 2.39 0 1 0-4.78-.002 2.39 2.39 0 0 0 4.78.001zm-7.392 0a2.39 2.39 0 1 0-4.78-.002 2.39 2.39 0 0 0 4.78.001zm-7.391 0a2.39 2.39 0 1 0-4.781-.002 2.39 2.39 0 0 0 4.78.001zm-7.391 0a2.39 2.39 0 1 0-4.781-.002 2.39 2.39 0 0 0 4.78.001zm-14.783 0a2.39 2.39 0 1 0-4.781-.002 2.39 2.39 0 0 0 4.781.001zm-7.391 0a2.39 2.39 0 1 0-4.781-.002 2.39 2.39 0 0 0 4.78.001zm-18.922 0a1.748 1.748 0 1 0 3.496 0 1.748 1.748 0 0 0-3.496 0zm-10.644 0a2.39 2.39 0 1 0-4.781 0 2.39 2.39 0 0 0 4.781 0zM51.476 2.391a1.383 1.383 0 1 0-2.767-.001 1.383 1.383 0 0 0 2.767 0zm-6.385 0a2.39 2.39 0 1 0-4.78-.004 2.39 2.39 0 0 0 4.78.004zm-7.39 0a2.391 2.391 0 1 0-4.783-.001 2.391 2.391 0 0 0 4.783 0zm-7.391 0a2.39 2.39 0 1 0-4.782-.002 2.39 2.39 0 0 0 4.782.002zm-7.392 0a2.39 2.39 0 1 0-4.78-.003 2.39 2.39 0 0 0 4.78.003zm-14.79 0a2.384 2.384 0 1 0-4.767-.003 2.384 2.384 0 0 0 4.767.003zm-14.776 0a2.39 2.39 0 1 0-4.781-.002 2.39 2.39 0 0 0 4.781.002zm-14.782 0a2.39 2.39 0 1 0-4.782-.002 2.39 2.39 0 0 0 4.782.002zm-7.392 0a2.39 2.39 0 1 0-4.781-.002 2.39 2.39 0 0 0 4.781.002zm-7.391 0a2.39 2.39 0 1 0-4.781-.002 2.39 2.39 0 0 0 4.781.002zm-7.391 0a2.39 2.39 0 1 0-4.782-.002 2.39 2.39 0 0 0 4.782.002zm-7.392 0a2.39 2.39 0 1 0-4.782 0 2.39 2.39 0 0 0 4.782 0zM-60.78 0a2.391 2.391 0 1 1 .001 4.783 2.391 2.391 0 0 1 0-4.783z" opacity=".8"/>
</svg>
